<svg width="172" height="182" fill="none" xmlns="http://www.w3.org/2000/svg"><path fill-rule="evenodd" clip-rule="evenodd" d="M80.328 12.215c45.457 1.993 70.098 25.6 84.082 48.86l-1.004.604c-13.83-23.005-38.151-46.322-83.13-48.294l.052-1.17z" fill="#fff"/><path fill-rule="evenodd" clip-rule="evenodd" d="M99.247 15.059c.261 0-5.288-8.292-11.842-10.688L99.247 15.06z" fill="#fff"/><path fill-rule="evenodd" clip-rule="evenodd" d="M99.603 15.528a.594.594 0 01-.356.12v-1.172a.577.577 0 00-.55.402.546.546 0 00-.018.269v.001a.412.412 0 00.018.065l-.001-.003a2.42 2.42 0 00-.116-.207c-.129-.213-.34-.533-.627-.933a34.328 34.328 0 00-2.503-3.058c-2.153-2.35-5.102-4.939-8.246-6.088l.402-1.1c3.41 1.247 6.513 4.002 8.707 6.397a35.501 35.501 0 012.59 3.166c.3.415.53.762.68 1.011.073.122.137.235.179.328.017.037.05.113.067.201v.001a.594.594 0 01-.226.6zm-.904-.31l-.002-.005a.03.03 0 01.002.006z" fill="#fff"/><path fill-rule="evenodd" clip-rule="evenodd" d="M87.907 4.568c.018-.42-.449-4.934-7.105-4.067l7.105 4.067z" fill="#fff"/><path fill-rule="evenodd" clip-rule="evenodd" d="M88.112 3.518c.155.501.19.907.184 1.066l-.78-.032a2.997 2.997 0 00-.15-.803 3.94 3.94 0 00-.803-1.44c-.84-.952-2.479-1.843-5.712-1.421L80.75.114c3.423-.447 5.346.486 6.398 1.68a4.72 4.72 0 01.964 1.724zm-7.194 8.835c.279.087 3.395.578 3.998-4.048l-3.998 4.048z" fill="#fff"/><path fill-rule="evenodd" clip-rule="evenodd" d="M81.579 12.513a2.371 2.371 0 01-.691-.06l.059-.19c.057.017.292.063.624.05.33-.014.75-.087 1.179-.301.853-.427 1.768-1.427 2.066-3.715l.199.026c-.305 2.337-1.25 3.405-2.175 3.868a3.11 3.11 0 01-1.261.322zm.768.635c-.115.183-1.23 2.146 1.954 3.45l-1.954-3.45z" fill="#fff"/><path fill-rule="evenodd" clip-rule="evenodd" d="M81.752 14.505a2.354 2.354 0 01.308-1.536l.574.36a1.68 1.68 0 00-.212 1.072c.081.523.486 1.26 2.007 1.884l-.257.627c-1.662-.68-2.29-1.576-2.42-2.407zm6.155-9.938c.018-.42-1.048-.597-7.105-4.067l7.105 4.067z" fill="#fff"/><path fill-rule="evenodd" clip-rule="evenodd" d="M87.874 3.918c.201.136.437.334.423.664l-.78-.032a.153.153 0 00.026.097.64.64 0 00-.106-.082c-.169-.114-.465-.273-.985-.542l-.215-.112a140.213 140.213 0 01-5.63-3.074l.388-.677a139.641 139.641 0 005.602 3.058l.215.112c.502.26.847.443 1.062.588zm-.33.731l-.001-.002.001.002zm-6.626 7.704c.279.087.588-.597 3.998-4.048l-3.998 4.048z" fill="#fff"/><path fill-rule="evenodd" clip-rule="evenodd" d="M81.246 12.322c-.123.107-.233.17-.358.13l.059-.19c.014.004.048.013.167-.091a8.46 8.46 0 00.554-.579l.114-.125c.553-.608 1.47-1.617 3.062-3.229l.143.141a95.316 95.316 0 00-3.057 3.223l-.114.125a8.553 8.553 0 01-.57.595zm1.101.826c-.114.183.315.532 2.13 3.615l-2.13-3.615z" fill="#fff"/><path fill-rule="evenodd" clip-rule="evenodd" d="M82.07 13.507c-.055-.115-.144-.327-.012-.538l.575.36a.207.207 0 00.03-.158.361.361 0 00.016.036c.042.085.128.223.293.478l.067.104c.33.51.878 1.358 1.729 2.803l-.585.344a71.328 71.328 0 00-1.713-2.78l-.068-.104a6.482 6.482 0 01-.331-.545zm.592-.34l.001.004a.017.017 0 01-.001-.004zm5.245-8.6c.018-.42-5.158 2.356-7.105-4.067l7.105 4.067z" fill="#fff"/><path fill-rule="evenodd" clip-rule="evenodd" d="M88.133 4.229c.117.09.169.226.164.354l-.78-.032a.357.357 0 00.137.294c.073.057.142.064.152.066h.011l-.069.01a6.34 6.34 0 00-.28.055l-.315.065c-.527.103-1.278.219-2.103.132a4.611 4.611 0 01-2.568-1.09c-.828-.71-1.551-1.81-2.054-3.47l.747-.226c.47 1.552 1.125 2.513 1.814 3.103a3.831 3.831 0 002.142.907c.71.074 1.372-.024 1.871-.122l.273-.056c.135-.028.258-.054.349-.069a1.03 1.03 0 01.272-.015.472.472 0 01.237.094zm-7.215 8.124c.279.087-.664-3.885 3.998-4.048l-3.998 4.048z" fill="#fff"/><path fill-rule="evenodd" clip-rule="evenodd" d="M81.002 12.431a.124.124 0 01-.113.02l.06-.191a.077.077 0 00-.069.012.052.052 0 00-.015.018.397.397 0 00.014-.087c.006-.057.01-.128.014-.213l.012-.214c.024-.366.08-.871.275-1.387a3.034 3.034 0 011.127-1.45c.591-.408 1.426-.69 2.606-.732l.007.2c-1.151.04-1.947.315-2.499.696-.552.38-.869.872-1.054 1.358-.185.487-.239.969-.262 1.328-.005.071-.008.14-.011.203-.005.091-.01.17-.015.23a.555.555 0 01-.028.14.157.157 0 01-.05.07zm1.344.717c-.114.183 2.894.529 2.13 3.882l-2.13-3.882z" fill="#fff"/><path fill-rule="evenodd" clip-rule="evenodd" d="M82.028 13.287a.358.358 0 01.032-.318l.574.36a.32.32 0 00.028-.282.29.29 0 00-.1-.133l.022.011c.036.018.078.035.134.059l.156.066c.265.115.64.295.997.59.36.295.704.709.9 1.286.197.577.239 1.293.036 2.18l-.66-.15c.18-.79.131-1.374-.017-1.811a2.153 2.153 0 00-.69-.982 3.48 3.48 0 00-.836-.49l-.123-.053a4.87 4.87 0 01-.19-.083.688.688 0 01-.151-.094.389.389 0 01-.112-.156zm59.389 14.027c.378-.427 3.939-8.107-4.008-10.373l4.008 10.373z" fill="#fff"/><path fill-rule="evenodd" clip-rule="evenodd" d="M141.786 27.302a1.346 1.346 0 01-.142.215l-.455-.4.018-.026.05-.084a4.6 4.6 0 00.147-.293 8.82 8.82 0 00.375-.973c.256-.794.479-1.83.452-2.914-.027-1.082-.302-2.203-1.034-3.186-.73-.982-1.936-1.854-3.872-2.406l.166-.583c2.038.581 3.367 1.518 4.192 2.627.824 1.108 1.125 2.359 1.154 3.533.029 1.172-.212 2.278-.482 3.115a9.4 9.4 0 01-.401 1.041 5.467 5.467 0 01-.168.334zM80.301 13.56c-.375-.43-7.53-4.953-10.804 2.635l10.804-2.635z" fill="#fff"/><path fill-rule="evenodd" clip-rule="evenodd" d="M80.323 13.206c.075.056.146.114.192.166l-.427.372a1.56 1.56 0 00-.103-.084 4.391 4.391 0 00-.272-.184 8.797 8.797 0 00-.919-.499c-.755-.357-1.756-.713-2.837-.827-1.08-.113-2.231.016-3.305.617-1.072.6-2.096 1.686-2.895 3.538l-.52-.225c.838-1.942 1.937-3.135 3.138-3.807 1.2-.672 2.476-.808 3.64-.686 1.164.123 2.227.503 3.021.878.398.188.73.376.978.532.124.078.228.15.309.21zm.471-.028c.092-.362-.89-6.438-7.952-6.967l7.952 6.967z" fill="#fff"/><path fill-rule="evenodd" clip-rule="evenodd" d="M81.156 13.027a.828.828 0 01-.014.242l-.696-.177a.182.182 0 00-.006.029l-.001-.05a2.3 2.3 0 00-.026-.216 5.697 5.697 0 00-.174-.737 7.887 7.887 0 00-1.035-2.155c-1.06-1.548-2.976-3.135-6.39-3.391l.054-.717c3.65.274 5.756 1.99 6.929 3.702.582.85.932 1.696 1.13 2.353.1.33.161.614.196.833.017.11.028.205.033.284z" fill="#fff"/><path fill-rule="evenodd" clip-rule="evenodd" d="M82.442 12.972c-.366-.073-6.354 1.041-6.517 8.122l6.517-8.122z" fill="#fff"/><path fill-rule="evenodd" clip-rule="evenodd" d="M82.3 12.845a.65.65 0 01.166 0l-.048.242a.88.88 0 00-.096.003c-.06.006-.139.017-.235.035a5.9 5.9 0 00-.755.201 7.817 7.817 0 00-2.15 1.118c-1.535 1.134-3.053 3.148-3.133 6.648l-.247-.006c.082-3.581 1.64-5.665 3.232-6.84a8.061 8.061 0 012.22-1.154c.312-.104.582-.17.787-.21.103-.018.19-.03.258-.037zM98.003 23.27c-.125.556-4.264 7.94-10.755 2.827l10.755-2.828z" fill="#fff"/><path fill-rule="evenodd" clip-rule="evenodd" d="M97.635 23.191l.001-.002.736.165a1.381 1.381 0 01-.096.256 5.036 5.036 0 01-.175.337 9.388 9.388 0 01-.614.943c-.523.714-1.284 1.563-2.26 2.232-.978.67-2.183 1.167-3.582 1.147-1.401-.02-2.955-.555-4.63-1.874l.467-.592c1.571 1.238 2.97 1.696 4.173 1.713 1.207.017 2.262-.41 3.145-1.015.886-.608 1.59-1.389 2.08-2.057.244-.333.433-.634.564-.866.065-.116.114-.213.148-.286.028-.06.04-.091.043-.101zm43.782 4.123c.378-.427-.593-1.527-4.008-10.373l4.008 10.373z" fill="#fff"/><path fill-rule="evenodd" clip-rule="evenodd" d="M141.72 26.67c.094.308.134.607-.076.845l-.454-.401-.002.003s.002-.005.002-.019a.824.824 0 00-.05-.253c-.085-.28-.269-.716-.583-1.44l-.131-.302a190.927 190.927 0 01-3.3-8.053l.565-.218c1.591 4.121 2.651 6.558 3.291 8.03l.131.302c.308.71.51 1.183.607 1.505zM80.301 13.563c-.375-.43-1.59.391-10.804 2.635l10.804-2.635z" fill="#fff"/><path fill-rule="evenodd" clip-rule="evenodd" d="M79.704 13.193c.318-.053.61-.053.81.178l-.426.372-.002-.002m-.382-.548c-.33.055-.824.193-1.569.407l1.57-.407zm-1.569.407l-.316.09.316-.09zm-.316.09a189.62 189.62 0 01-8.388 2.226l8.388-2.225zm-8.388 2.226l.134.55-.134-.55zm.134.55c4.303-1.047 6.865-1.786 8.41-2.23l-8.41 2.23zm8.41-2.23c.11-.033.216-.063.317-.092l-.317.091zm.317-.092c.758-.218 1.215-.345 1.505-.393l-1.505.393zm1.505-.393a.89.89 0 01.265-.017l-.265.017zm.265-.017c.018.003.024.007.024.007l-.024-.007zm.024.007zm70.177 36.895c-.148-.5-2.105-.406-14.278-2.773l14.278 2.773z" fill="#fff"/><path fill-rule="evenodd" clip-rule="evenodd" d="M150.289 50.139a.662.662 0 01.34.392l-.731.217c.014.049.042.07.042.07l-.016-.01a1.557 1.557 0 00-.335-.11c-.375-.093-.996-.2-2.017-.368l-.428-.07c-2.087-.344-5.547-.914-11.231-2.019l.146-.749c5.673 1.103 9.125 1.671 11.209 2.014l.428.07c1.008.167 1.665.28 2.078.382.205.051.379.107.515.181zM80.794 13.178c.092-.361-1.147-1.02-7.775-6.928l7.775 6.928z" fill="#fff"/><path fill-rule="evenodd" clip-rule="evenodd" d="M81.068 12.834a.561.561 0 01.075.43l-.696-.175a.175.175 0 00.005.115l-.002-.003a1.049 1.049 0 00-.152-.173c-.194-.192-.534-.482-1.102-.96l-.238-.2a258.01 258.01 0 01-6.177-5.351l.478-.537a257.239 257.239 0 006.162 5.338l.237.2c.559.47.926.782 1.145 1 .109.107.203.211.265.316zm1.374.138c-.366-.073-.959 1.198-6.517 8.122l6.517-8.122z" fill="#fff"/><path fill-rule="evenodd" clip-rule="evenodd" d="M82.217 12.908a.327.327 0 01.25-.063l-.049.242c-.003 0-.02-.004-.064.026a1.236 1.236 0 00-.21.2c-.19.212-.469.576-.915 1.165l-.187.247a257.95 257.95 0 01-5.02 6.44l-.193-.154a257.61 257.61 0 005.017-6.434l.187-.248c.443-.585.728-.959.927-1.18.098-.11.181-.191.257-.241zM98.003 23.27c-.125.556-1.585.413-10.755 2.827l10.755-2.828z" fill="#fff"/><path fill-rule="evenodd" clip-rule="evenodd" d="M97.651 23.158a.081.081 0 00-.014.033l.735.165c-.08.352-.382.505-.689.611-.323.111-.83.226-1.584.392l-.322.07a189.36 189.36 0 00-8.432 2.036l-.192-.729a190.297 190.297 0 018.785-2.113c.772-.17 1.227-.275 1.5-.369a.803.803 0 00.213-.096zm.006-.006l-.006.006a.02.02 0 01.006-.006zm43.76 4.162c.012-7.656-.799-6.256-4.008-10.373l4.008 10.373z" fill="#fff"/><path fill-rule="evenodd" clip-rule="evenodd" d="M140.887 20.66c.645 1.2.839 2.843.833 6.657h-.606c.006-3.842-.2-5.327-.76-6.37-.281-.523-.657-.947-1.186-1.516a18.104 18.104 0 00-.139-.15 29.865 29.865 0 01-1.859-2.15l.478-.373c.724.93 1.324 1.573 1.825 2.111l.139.15c.526.565.953 1.041 1.275 1.64zm-60.586-7.1c-7.59-1.001-6.308-.016-10.804 2.634l10.804-2.635z" fill="#fff"/><path fill-rule="evenodd" clip-rule="evenodd" d="M73.64 13.24c1.267-.481 2.916-.462 6.7.036l-.075.562c-3.808-.502-5.312-.49-6.425-.068-.556.212-1.028.531-1.66.982l-.166.119c-.6.428-1.334.953-2.372 1.565l-.287-.488a29.399 29.399 0 002.33-1.539l.166-.118c.63-.448 1.155-.81 1.788-1.05zm76.623 37.397c-8.128-4.15-7.299-2.819-14.278-2.773l14.278 2.773z" fill="#fff"/><path fill-rule="evenodd" clip-rule="evenodd" d="M142.734 47.3c1.761.189 3.644.927 7.703 3l-.347.679c-4.069-2.078-5.835-2.749-7.437-2.92-.804-.087-1.578-.048-2.611.019l-.271.017c-.98.064-2.177.143-3.783.153l-.005-.763c1.583-.01 2.76-.087 3.739-.151l.271-.018c1.029-.066 1.864-.11 2.741-.016zM98.003 23.27c-6.199 4.494-5.54 3.016-10.755 2.827l10.755-2.828z" fill="#fff"/><path fill-rule="evenodd" clip-rule="evenodd" d="M92.208 26.066c1.152-.154 2.462-.844 5.575-3.101l.442.61c-3.086 2.237-4.546 3.055-5.917 3.238-.685.092-1.33.023-2.096-.072l-.203-.025c-.73-.091-1.6-.2-2.774-.242l.028-.754c1.208.044 2.108.157 2.839.248l.202.025c.772.095 1.327.15 1.904.073zm49.209 1.248c-.925-4.057-5.096-3.096-4.008-10.373l4.008 10.373z" fill="#fff"/><path fill-rule="evenodd" clip-rule="evenodd" d="M139.606 23.889c.833.83 1.733 1.725 2.106 3.36l-.591.135c-.33-1.449-1.071-2.189-1.878-2.994a16.47 16.47 0 01-.814-.855c-.534-.614-1.01-1.344-1.277-2.398-.265-1.047-.319-2.394-.043-4.239l.599.09c-.268 1.794-.208 3.055.031 4 .238.94.659 1.588 1.147 2.15.223.257.468.5.72.75zm-59.305-10.33c-4.143.393-3.73 4.653-10.804 2.634l10.804-2.634z" fill="#fff"/><path fill-rule="evenodd" clip-rule="evenodd" d="M76.683 14.926c.93-.719 1.928-1.49 3.59-1.649l.054.564c-1.485.141-2.32.785-3.224 1.482-.3.23-.607.467-.948.694-.677.449-1.46.825-2.535.953-1.07.128-2.41.007-4.201-.504l.155-.545c1.746.498 3.007.603 3.98.487.966-.115 1.665-.45 2.287-.863.285-.19.56-.402.842-.619zm73.58 35.71c-5.063-1.54-7.428 1.934-14.278-2.773l14.278 2.773z" fill="#fff"/><path fill-rule="evenodd" clip-rule="evenodd" d="M145.191 49.953c1.552-.14 3.181-.289 5.182.32l-.222.73c-1.846-.562-3.285-.432-4.806-.295-.498.044-1.004.09-1.536.112-2.161.091-4.546-.24-8.04-2.64l.432-.63c3.356 2.307 5.577 2.592 7.576 2.508a29.7 29.7 0 001.414-.105zM98.003 23.27c-3.83 1.626-5.495-2.317-10.755 2.827l10.755-2.828z" fill="#fff"/><path fill-rule="evenodd" clip-rule="evenodd" d="M94.383 23.15c1.12.18 2.127.344 3.474-.228l.294.694c-1.564.664-2.845.455-4.009.264-.347-.056-.683-.111-1.013-.141-.733-.066-1.492-.028-2.38.324-.895.355-1.944 1.039-3.237 2.302l-.527-.539c1.338-1.308 2.47-2.06 3.486-2.463 1.023-.406 1.906-.448 2.725-.375.42.038.81.1 1.187.162zm47.034 4.164c.378-.427-8.674-3.833-4.008-10.373l4.008 10.373z" fill="#fff"/><path fill-rule="evenodd" clip-rule="evenodd" d="M141.716 27.173c.03.1.023.231-.071.338l-.454-.4a.255.255 0 00-.054.24c.007.026.018.042.022.048l-.002-.002a1.215 1.215 0 00-.173-.141c-.131-.096-.305-.21-.517-.35a64.678 64.678 0 01-.341-.225c-.726-.484-1.7-1.17-2.541-2.056-.84-.887-1.565-1.994-1.765-3.323-.2-1.338.14-2.854 1.343-4.54l.493.352c-1.13 1.584-1.409 2.945-1.236 4.098.174 1.162.813 2.16 1.605 2.996.792.835 1.719 1.49 2.437 1.969l.321.212c.221.145.415.273.557.376.103.074.202.153.27.23a.496.496 0 01.106.178zm-.555.228l-.002-.002a.01.01 0 00.002.002zm-60.86-13.838c-.375-.43-4.922 8.106-10.804 2.634l10.804-2.634z" fill="#fff"/><path fill-rule="evenodd" clip-rule="evenodd" d="M80.206 13.263a.33.33 0 01.308.107l-.427.373a.236.236 0 00.214.078.153.153 0 00.044-.014l-.004.003c-.028.018-.08.066-.165.155a14.87 14.87 0 00-.415.47l-.266.308c-.574.657-1.379 1.533-2.365 2.25-.986.718-2.173 1.292-3.511 1.318-1.347.025-2.802-.505-4.315-1.913l.385-.414c1.428 1.328 2.747 1.783 3.919 1.76 1.18-.022 2.256-.53 3.189-1.208.933-.679 1.703-1.515 2.27-2.166.089-.1.173-.198.253-.291.172-.2.323-.375.444-.503.087-.091.176-.178.259-.235a.47.47 0 01.183-.078zm.141.543l-.002.001a.048.048 0 01.002-.001zm69.916 36.832c-.148-.5-11.332 3.617-14.495-3.226l14.495 3.226zm0 0c-.148-.5-5.748-7.148-14.606-2.744l14.606 2.744z" fill="#fff"/><path fill-rule="evenodd" clip-rule="evenodd" d="M150.494 50.256c.049.073.114.174.143.27l.188.637-.782-.174a3.885 3.885 0 00-.255.033c-.216.034-.491.086-.822.15l-.514.097c-1.124.21-2.658.468-4.293.525-3.24.112-7.057-.567-8.745-4.219l-.331-.716 1.27.283c4.153-1.781 7.584-1.21 10.038-.069a12.152 12.152 0 013.036 2.018c.354.323.632.62.828.855.098.117.178.222.239.31zm-13.975-2.278c1.624 2.568 4.693 3.137 7.613 3.036 1.461-.051 2.847-.27 3.929-.467l-11.542-2.569zm1.211-.53c3.445-1.169 6.27-.625 8.332.333a11.384 11.384 0 012.839 1.886c.133.122.253.239.361.348l-11.532-2.567zM80.795 13.18c.091-.361-8.276-1.967-7.72-7.336l7.72 7.336z" fill="#fff"/><path fill-rule="evenodd" clip-rule="evenodd" d="M81.04 12.897a.4.4 0 01.103.373l-.696-.176a.32.32 0 00.072.298c.011.012.02.019.024.021l-.008-.004a1.796 1.796 0 00-.204-.093c-.143-.059-.33-.127-.555-.21l-.353-.131c-.767-.287-1.807-.697-2.837-1.27-2.035-1.13-4.17-2.981-3.868-5.896l.715.074c-.255 2.454 1.516 4.09 3.502 5.195.982.545 1.981.94 2.74 1.224l.335.124c.233.086.437.161.592.224.11.045.217.092.297.139a.638.638 0 01.14.108zm-.496.517h-.001.001zm1.898-.444c-.366-.073-1.126 8.4-6.517 8.121l6.517-8.122z" fill="#fff"/><path fill-rule="evenodd" clip-rule="evenodd" d="M82.314 12.908a.156.156 0 01.151-.057l-.048.242c.026.005.048 0 .062-.008a.063.063 0 00.02-.014s-.003.002-.006.008a1.926 1.926 0 00-.097.267c-.044.15-.095.344-.156.576l-.094.359c-.207.781-.507 1.832-.966 2.878-.914 2.084-2.484 4.201-5.262 4.058l.013-.246c2.613.134 4.118-1.846 5.023-3.91.451-1.03.747-2.065.954-2.844l.092-.352c.061-.234.114-.435.16-.589a2.14 2.14 0 01.095-.274.39.39 0 01.059-.095zm15.689 10.363c-.125.557-8.188-4.785-10.755 2.827l10.755-2.827z" fill="#fff"/><path fill-rule="evenodd" clip-rule="evenodd" d="M97.848 22.948a.33.33 0 00-.212.238l.736.166a.424.424 0 01-.282.31.563.563 0 01-.237.022 1.808 1.808 0 01-.36-.088 14.59 14.59 0 01-.636-.233l-.357-.134c-.808-.302-1.876-.667-3.008-.819-1.133-.151-2.299-.084-3.324.446-1.016.525-1.945 1.531-2.562 3.36l-.714-.24c.666-1.977 1.708-3.158 2.93-3.79 1.212-.626 2.55-.686 3.77-.523 1.22.163 2.352.553 3.171.86.14.051.267.1.384.144.237.09.43.163.581.213.116.038.177.052.2.054-.01 0-.04 0-.08.014zm.08-.014zm21.509-9.73c.156-.683.767-8.228-10.411-8.833l10.411 8.832z" fill="#fff"/><path fill-rule="evenodd" clip-rule="evenodd" d="M118.811 8.561c1.287 2.15 1.095 4.313 1 4.728l-.748-.17c.061-.268.253-2.22-.91-4.163-1.144-1.912-3.653-3.904-9.147-4.201l.041-.767c5.683.308 8.458 2.391 9.764 4.573z" fill="#fff"/><path fill-rule="evenodd" clip-rule="evenodd" d="M119.437 13.204c.156-.683-1.536-1.299-10.411-8.833l10.411 8.832z" fill="#fff"/><path fill-rule="evenodd" clip-rule="evenodd" d="M119.393 12.321c.282.279.506.581.417.968l-.748-.171v.008l.001.002-.008-.02a1.074 1.074 0 00-.201-.24c-.256-.252-.708-.613-1.473-1.21l-.319-.248c-1.556-1.214-4.138-3.227-8.285-6.747l.497-.585c4.134 3.51 6.707 5.515 8.261 6.727.111.087.217.17.319.248.748.585 1.244.977 1.539 1.268z" fill="#fff"/><path fill-rule="evenodd" clip-rule="evenodd" d="M117.548 11.3c-3.316.06-4.432.266-5.09.266l5.09-.265z" fill="#fff"/><path fill-rule="evenodd" clip-rule="evenodd" d="M113.977 11.078a59.79 59.79 0 013.565-.156l.013.767a60.08 60.08 0 00-4.163.206c-.401.034-.698.06-.934.06v-.768c.203 0 .45-.02.821-.052.195-.017.423-.036.698-.057zm1.215-1.496c-2.835.06-3.79.265-4.352.265l4.352-.265z" fill="#fff"/><path fill-rule="evenodd" clip-rule="evenodd" d="M112.13 9.356c.671-.06 1.627-.127 3.054-.157l.016.763a43.448 43.448 0 00-3.545.205 8.89 8.89 0 01-.815.06v-.763c.169 0 .372-.02.684-.05.167-.017.365-.037.606-.058zm.781-1.758c-2.05.06-2.74.265-3.147.265l3.147-.265z" fill="#fff"/><path fill-rule="evenodd" clip-rule="evenodd" d="M110.674 7.372c.491-.06 1.188-.127 2.226-.157l.022.77a22.663 22.663 0 00-2.733.228 3.4 3.4 0 01-.425.036v-.77c.074 0 .171-.009.325-.029l.161-.022c.12-.016.263-.036.424-.056z" fill="#fff"/><path fill-rule="evenodd" clip-rule="evenodd" d="M119.437 13.204c.156-.683-9.174 2.292-10.411-8.833l10.411 8.832z" fill="#fff"/><path fill-rule="evenodd" clip-rule="evenodd" d="M119.712 12.894a.44.44 0 01.099.395l-.748-.172a.329.329 0 00.075.287.28.28 0 00.077.062c.017.01.03.013.032.014l-.041-.006a1.677 1.677 0 00-.129-.007 11.51 11.51 0 00-.501.006c-.151.004-.324.008-.521.01-.886.009-2.121-.03-3.41-.413-1.293-.384-2.643-1.114-3.747-2.481-1.102-1.366-1.937-3.34-2.252-6.176l.762-.085c.303 2.727 1.098 4.552 2.088 5.779.988 1.224 2.193 1.88 3.367 2.227 1.18.35 2.325.39 3.184.382.166-.002.328-.006.479-.01.223-.005.42-.01.569-.006.121.003.262.011.377.047a.52.52 0 01.24.147z" fill="#fff"/><path fill-rule="evenodd" clip-rule="evenodd" d="M130.706 27.023c.261 0-5.917-11.004-11.842-14.226l11.842 14.226z" fill="#fff"/><path fill-rule="evenodd" clip-rule="evenodd" d="M131.135 27.426a.59.59 0 01-.43.185v-1.17a.577.577 0 00-.568.471c-.02.106-.002.187 0 .197l.007.03-.008-.021a4.183 4.183 0 00-.144-.307 24.474 24.474 0 00-.699-1.259 56.04 56.04 0 00-2.665-4.09c-2.249-3.15-5.209-6.607-8.044-8.148l.559-1.029c3.091 1.68 6.182 5.337 8.438 8.496a57.343 57.343 0 012.722 4.179c.321.547.571 1 .734 1.322.08.159.145.297.187.403a1.1 1.1 0 01.061.194c.005.027.025.126.003.244a.59.59 0 01-.153.303z" fill="#fff"/><path fill-rule="evenodd" clip-rule="evenodd" d="M130.706 27.023c.261 0-5.917-11.004-11.842-14.226l11.842 14.226z" fill="#fff"/><path fill-rule="evenodd" clip-rule="evenodd" d="M131.135 27.426a.59.59 0 01-.43.185v-1.17a.577.577 0 00-.568.471c-.02.106-.002.187 0 .197l.007.03-.008-.021a4.183 4.183 0 00-.144-.307 24.474 24.474 0 00-.699-1.259 56.04 56.04 0 00-2.665-4.09c-2.249-3.15-5.209-6.607-8.044-8.148l.559-1.029c3.091 1.68 6.182 5.337 8.438 8.496a57.343 57.343 0 012.722 4.179c.321.547.571 1 .734 1.322.08.159.145.297.187.403a1.1 1.1 0 01.061.194c.005.027.025.126.003.244a.59.59 0 01-.153.303zm16.349 12.506c.262 0-2.929-6.453-5.924-12.905l5.924 12.905z" fill="#fff"/><path fill-rule="evenodd" clip-rule="evenodd" d="M147.957 40.285a.597.597 0 01-.473.233v-1.171a.574.574 0 00-.566.494.395.395 0 00.002.131h-.001a1.573 1.573 0 00-.042-.132c-.061-.169-.169-.43-.323-.782-.306-.697-.771-1.699-1.341-2.91-.378-.802-.802-1.696-1.254-2.65a830.426 830.426 0 01-2.931-6.224l1.062-.493c.998 2.15 2.017 4.297 2.923 6.208.454.956.879 1.853 1.26 2.661.569 1.21 1.04 2.224 1.353 2.938.156.355.277.647.352.856.036.099.071.206.09.3a.791.791 0 01.012.242.618.618 0 01-.123.3zM120.7 31.8c.098.177 1.422 1.917 3.941-.109l-3.941.11z" fill="#fff"/><path fill-rule="evenodd" clip-rule="evenodd" d="M121.664 32.888c-.758-.235-1.175-.782-1.256-.928l.583-.323h.001a1.57 1.57 0 00.231.253c.15.133.363.276.638.361.527.164 1.375.14 2.571-.821l.418.52c-1.324 1.063-2.398 1.182-3.186.938zm-.226.979c-.144.037-1.635.651-.667 2.83l.667-2.83z" fill="#fff"/><path fill-rule="evenodd" clip-rule="evenodd" d="M121.076 33.924a1.26 1.26 0 01.336-.166l.054.215c-.021.005-.13.044-.267.136a1.43 1.43 0 00-.417.427c-.245.392-.382 1.05.091 2.114l-.203.09c-.495-1.114-.37-1.853-.076-2.322a1.65 1.65 0 01.482-.494zm6.784 7.356c-.28-.2-3.792-1.581-6.188 3.38l6.188-3.38z" fill="#fff"/><path fill-rule="evenodd" clip-rule="evenodd" d="M127.686 40.963c.133.05.24.1.299.142l-.249.348-.004-.002-.011-.007a1.78 1.78 0 00-.183-.08 3.084 3.084 0 00-.467-.13 3.726 3.726 0 00-1.468.009c-1.136.234-2.564 1.077-3.739 3.509l-.385-.186c1.222-2.53 2.748-3.476 4.037-3.742a4.155 4.155 0 011.637-.009c.215.043.395.097.533.148zM120.7 31.8c.098.177.581-.017 3.941-.109l-3.941.11z" fill="#fff"/><path fill-rule="evenodd" clip-rule="evenodd" d="M120.869 32.2c-.121-.005-.343-.029-.461-.24l.583-.324a.21.21 0 00-.125-.104l.034.003c.088.004.239-.004.524-.024l.116-.008c.57-.04 1.517-.105 3.092-.148l.018.667a66.976 66.976 0 00-3.064.146l-.116.008a6.097 6.097 0 01-.601.025zm-.008-.669l.005.001h-.005zm.578 2.336c-.145.037-.098.417-.668 2.83l.668-2.83z" fill="#fff"/><path fill-rule="evenodd" clip-rule="evenodd" d="M121.248 33.95c.025-.081.065-.167.164-.192l.054.215a.033.033 0 00.015-.008.192.192 0 00-.022.052 4.72 4.72 0 00-.086.393l-.016.085c-.08.413-.212 1.098-.478 2.225l-.216-.05c.265-1.124.397-1.805.476-2.217l.016-.085c.039-.198.065-.332.093-.418zm.234.014l-.001.001.001-.001zm6.378 7.32c-.28-.2-.881.451-5.987 3.052l5.987-3.052z" fill="#fff"/><path fill-rule="evenodd" clip-rule="evenodd" d="M127.442 41.108c.181-.075.372-.125.543-.003l-.249.348a.036.036 0 00.013.006.462.462 0 00-.142.043c-.161.068-.409.204-.826.439l-.173.097c-.847.477-2.251 1.268-4.638 2.483l-.194-.38c2.379-1.212 3.777-2 4.622-2.475l.174-.098c.407-.229.68-.38.87-.46zm.312.351h-.005.005z" fill="#fff"/><path fill-rule="evenodd" clip-rule="evenodd" d="M126.639 41.777c-.603 1.518-.721 2.064-.846 2.363l.846-2.363z" fill="#fff"/><path fill-rule="evenodd" clip-rule="evenodd" d="M125.834 43.349c.122-.367.303-.887.606-1.65l.397.158a29.348 29.348 0 00-.695 1.927 6.19 6.19 0 01-.152.439l-.394-.165c.038-.091.075-.206.13-.38l.108-.33zm-.424-.826c-.511 1.3-.599 1.772-.706 2.027l.706-2.027z" fill="#fff"/><path fill-rule="evenodd" clip-rule="evenodd" d="M124.713 43.867c.1-.317.251-.764.508-1.418l.378.149a21.192 21.192 0 00-.499 1.392l-.08.255c-.05.164-.088.289-.128.384l-.374-.157c.031-.076.06-.17.105-.318.025-.079.053-.173.09-.287zm-.638-.683c-.362.942-.399 1.295-.476 1.48l.476-1.48z" fill="#fff"/><path fill-rule="evenodd" clip-rule="evenodd" d="M123.548 44.154c.066-.234.167-.564.351-1.04l.353.135a11.163 11.163 0 00-.393 1.201l-.022.084c-.02.074-.04.141-.064.2l-.349-.146c.014-.034.028-.08.048-.153l.021-.078c.015-.057.033-.126.055-.203zM120.7 31.799c.098.177 1.531-2.262 3.941-.109l-3.941.109z" fill="#fff"/><path fill-rule="evenodd" clip-rule="evenodd" d="M120.675 32.14a.35.35 0 01-.267-.178l.583-.323a.318.318 0 00-.241-.16.292.292 0 00-.184.039l.016-.013.092-.085c.032-.03.069-.066.119-.11.194-.179.487-.426.867-.606a2.366 2.366 0 011.415-.208c.552.09 1.15.377 1.788.947l-.444.497c-.567-.507-1.053-.722-1.451-.786a1.698 1.698 0 00-1.022.152 2.887 2.887 0 00-.703.495l-.092.085a5.42 5.42 0 01-.136.125.634.634 0 01-.142.096.369.369 0 01-.198.033zm.764 1.727c-.145.037 1.323 1.518-.668 2.83l.668-2.83z" fill="#fff"/><path fill-rule="evenodd" clip-rule="evenodd" d="M121.326 33.833a.124.124 0 01.085-.075l.055.215a.1.1 0 00.067-.06.075.075 0 00.005-.043v-.001l.012.027.048.092.053.099c.088.168.202.41.255.695.053.287.045.62-.11.968-.155.347-.453.701-.964 1.038l-.122-.186c.484-.319.749-.642.883-.942.134-.3.142-.586.095-.838a2.272 2.272 0 00-.233-.632 3.383 3.383 0 00-.048-.089c-.022-.042-.043-.08-.057-.11a.336.336 0 01-.03-.083.138.138 0 01.006-.075zm6.533 7.45c-.28-.2-.519 4.688-5.806 3.138l5.806-3.138z" fill="#fff"/><path fill-rule="evenodd" clip-rule="evenodd" d="M127.758 41.074a.241.241 0 01.226.03l-.249.348a.188.188 0 00.226-.008l.016-.018-.001.001c-.002.004-.012.023-.031.07a7.885 7.885 0 00-.08.227 11.98 11.98 0 01-.086.25c-.147.413-.377.98-.774 1.508-.4.53-.969 1.02-1.791 1.274-.82.252-1.87.261-3.221-.135l.12-.41c1.293.379 2.255.358 2.976.136a3.065 3.065 0 001.574-1.123c.359-.475.571-.995.713-1.394l.079-.227c.035-.103.066-.195.093-.262a.723.723 0 01.088-.172.275.275 0 01.122-.095zm-7.944-8.967c.018-.395-1.393-6.088-6.668-3.862l6.668 3.862z" fill="#fff"/><path fill-rule="evenodd" clip-rule="evenodd" d="M120.184 31.908c.011.065.022.146.019.216l-.78-.036v.01s-.001-.017-.009-.06a2.823 2.823 0 00-.044-.208 5.955 5.955 0 00-.214-.667 6.007 6.007 0 00-.99-1.718c-.467-.552-1.072-1.012-1.849-1.214-.775-.2-1.764-.157-3.02.373l-.304-.719c1.381-.583 2.547-.662 3.52-.41.97.252 1.706.823 2.249 1.465.542.64.901 1.362 1.123 1.944.112.292.191.553.242.757.025.102.045.193.057.267zm.058.246c.219-.137 2.712-3.542-.568-7.193l.568 7.193z" fill="#fff"/><path fill-rule="evenodd" clip-rule="evenodd" d="M120.428 32.196a.502.502 0 01-.101.093l-.171-.273-.003.002.034-.035c.025-.03.059-.07.098-.124a3.96 3.96 0 00.28-.451c.207-.384.43-.92.546-1.563.233-1.28.047-2.992-1.557-4.778l.239-.215c1.676 1.864 1.884 3.68 1.635 5.05a5.658 5.658 0 01-.58 1.659 4.37 4.37 0 01-.303.488c-.044.06-.083.109-.117.147zm1.286 1.166c-.148-.212-3.678-2.525-7.154.94l7.154-.94z" fill="#fff"/><path fill-rule="evenodd" clip-rule="evenodd" d="M121.86 33.03a.692.692 0 01.134.134l-.561.393a.313.313 0 00.022.027l-.021-.018a1.713 1.713 0 00-.115-.081 3.814 3.814 0 00-.444-.245 5.153 5.153 0 00-1.534-.449c-1.238-.159-2.882.099-4.54 1.752l-.484-.486c1.818-1.811 3.678-2.13 5.111-1.945a5.84 5.84 0 011.741.51c.216.102.393.204.524.29a2.1 2.1 0 01.167.118zm-2.046-.923c.018-.395-.984-.567-6.668-3.86l6.668 3.86z" fill="#fff"/><path fill-rule="evenodd" clip-rule="evenodd" d="M119.799 31.476c.188.13.419.323.404.647l-.78-.036a.176.176 0 00.029.108.561.561 0 00-.094-.074c-.157-.108-.434-.257-.922-.514l-.202-.106c-.987-.518-2.626-1.378-5.285-2.92l.392-.675a130.963 130.963 0 005.256 2.904l.202.106c.471.248.796.421 1 .56zm-.345.72l-.002-.001.002.002zm.788-.042c.219-.137-.085-1.06-.568-7.193l.568 7.193z" fill="#fff"/><path fill-rule="evenodd" clip-rule="evenodd" d="M120.457 32.09a.3.3 0 01-.129.198l-.171-.273a.044.044 0 00-.017.017l.004-.014a.765.765 0 00.009-.182 15.946 15.946 0 00-.091-1.015l-.023-.214c-.113-1.043-.3-2.772-.525-5.636l.321-.026c.225 2.86.411 4.585.524 5.628l.023.213c.054.504.087.832.093 1.042.003.104-.001.192-.018.263zm1.257 1.267c-.148-.211-1.054.14-7.154.94l7.154-.94z" fill="#fff"/><path fill-rule="evenodd" clip-rule="evenodd" d="M121.675 32.974a.483.483 0 01.32.193l-.561.393a.212.212 0 00.121.088l-.009-.001a1.167 1.167 0 00-.127.003c-.184.014-.485.06-.995.142l-.213.034a177.01 177.01 0 01-5.606.817l-.089-.68c2.841-.372 4.553-.647 5.587-.813l.212-.034c.498-.08.832-.132 1.05-.148.108-.009.215-.012.31.005zm-1.861-.867c-3.318-4.14-3.149-3.031-6.668-3.86l6.668 3.86z" fill="#fff"/><path fill-rule="evenodd" clip-rule="evenodd" d="M116.707 28.573c.918.389 1.763 1.231 3.411 3.287l-.609.489c-1.67-2.084-2.399-2.757-3.106-3.057-.354-.15-.72-.214-1.254-.291l-.14-.02c-.505-.074-1.132-.164-1.953-.358l.179-.76c.787.186 1.383.272 1.887.345l.14.02c.528.077.987.151 1.445.345z" fill="#fff"/><path fill-rule="evenodd" clip-rule="evenodd" d="M119.814 32.107c-2.261-1.789-4.097.54-6.668-3.86l6.668 3.86z" fill="#fff"/><path fill-rule="evenodd" clip-rule="evenodd" d="M117.339 30.857c.817.086 1.76.185 2.716.942l-.484.612c-.764-.604-1.422-.675-2.192-.759-.268-.029-.549-.06-.853-.114a4.073 4.073 0 01-1.807-.774c-.623-.47-1.252-1.194-1.911-2.323l.674-.394c.626 1.072 1.191 1.706 1.706 2.094a3.3 3.3 0 001.476.629c.213.038.438.062.675.087z" fill="#fff"/><path fill-rule="evenodd" clip-rule="evenodd" d="M119.814 32.107c.018-.395-6.349 1.697-6.668-3.86l6.668 3.86z" fill="#fff"/><path fill-rule="evenodd" clip-rule="evenodd" d="M120.016 31.75a.423.423 0 01.188.37l-.78-.035a.359.359 0 00.154.31.32.32 0 00.102.045h.001l-.027-.001c-.022 0-.051 0-.089.002a8.72 8.72 0 00-.417.035 41.68 41.68 0 01-.289.027c-.605.054-1.445.108-2.305-.008-.86-.117-1.772-.409-2.494-1.074-.73-.674-1.22-1.688-1.304-3.157l.779-.045c.075 1.309.501 2.117 1.054 2.628.562.517 1.3.77 2.07.874.769.105 1.538.057 2.131.004l.258-.024c.185-.018.352-.034.478-.04a1.38 1.38 0 01.285.01.522.522 0 01.205.078z" fill="#fff"/><path fill-rule="evenodd" clip-rule="evenodd" d="M120.242 32.154c.219-.137-3.421-4.773-.568-7.193l.568 7.193z" fill="#fff"/><path fill-rule="evenodd" clip-rule="evenodd" d="M120.413 32.121a.187.187 0 01-.085.167l-.171-.272c-.067.042-.066.11-.066.115l.001.008-.004-.013a1.344 1.344 0 00-.068-.15 11.737 11.737 0 00-.193-.361l-.124-.228c-.266-.493-.617-1.17-.884-1.922-.53-1.491-.757-3.35.751-4.63l.208.246c-1.344 1.14-1.177 2.81-.656 4.277.259.727.6 1.386.865 1.876l.119.22c.081.148.151.276.202.376.036.073.068.14.086.195.008.025.018.06.019.096zm1.301 1.239c-.148-.212-4.59 3.663-7.154.94l7.154-.94z" fill="#fff"/><path fill-rule="evenodd" clip-rule="evenodd" d="M121.66 33.009a.369.369 0 01.335.153l-.561.393a.317.317 0 00.282.136.213.213 0 00.046-.008 1.13 1.13 0 00-.123.064c-.09.052-.203.121-.341.206l-.225.138c-.482.294-1.149.684-1.899.995-1.476.613-3.424.975-4.863-.553l.498-.47c1.125 1.195 2.68.981 4.103.39.699-.29 1.331-.658 1.804-.946l.21-.129c.145-.09.273-.168.374-.225a1.71 1.71 0 01.213-.108.538.538 0 01.147-.036zm.105.673l-.003.001a.013.013 0 01.003 0zm25.718 6.248c.262 0-22.384-1.165-25.379-7.617l25.379 7.616z" fill="#fff"/><path fill-rule="evenodd" clip-rule="evenodd" d="M147.501 40.515h-.017v-1.17h-.014l-.048.003c-.051.008-.461.323-.482.792.144.215.399.356.433.364l.038.006.013.002h-.001l-.02-.002-.167-.01a106.549 106.549 0 01-3.243-.27c-2.143-.211-5.06-.56-8.083-1.113-3.018-.552-6.165-1.31-8.757-2.348-2.555-1.023-4.728-2.375-5.58-4.21l1.062-.493c.646 1.392 2.427 2.605 4.953 3.615 2.488.996 5.547 1.738 8.533 2.284 2.98.545 5.863.89 7.987 1.1a105.562 105.562 0 003.206.266l.169.011.046.004.015.001.015.002c.007 0 .027.004.04.006.035.008.29.15.434.364-.022.47-.431.785-.483.793l-.023.002-.026.001z" fill="#fff"/><path fill-rule="evenodd" clip-rule="evenodd" d="M147.484 39.93c.262 0-16.77-1.661-20.092 1.8l20.092-1.8z" fill="#fff"/><path fill-rule="evenodd" clip-rule="evenodd" d="M147.545 40.511c-.031.003-.056.003-.061.003v-1.17h-.001l-.056.002c-.02.003-.08.014-.119.025-.104.045-.379.38-.388.705.084.184.278.361.333.39a1.09 1.09 0 00.123.037h.001l.016.003h-.006a83.069 83.069 0 00-2.502-.197 93.601 93.601 0 00-6.101-.192c-2.307.009-4.705.125-6.722.45-1.008.161-1.906.373-2.642.642-.744.271-1.279.585-1.606.926l-.845-.81c.503-.525 1.227-.916 2.049-1.216.83-.303 1.807-.53 2.858-.699 2.103-.338 4.57-.455 6.903-.464a94.897 94.897 0 018.618.383l.133.014h.001c.01.001.035.004.059.009l.05.011.08.028c.056.028.249.206.333.39-.009.326-.284.66-.388.705-.04.011-.1.023-.12.025zm-30.491-20.198c.262 0-15.82-.875-20.092 3.702l20.092-3.702z" fill="#fff"/><path fill-rule="evenodd" clip-rule="evenodd" d="M117.086 20.893l-.031.001v-1.17h-.027a.969.969 0 00-.052.005 1.108 1.108 0 00-.421.28c-.067.435.26.832.334.86a1.012 1.012 0 00.104.021l.009.001h-.009a64.225 64.225 0 00-2.371-.062 70.655 70.655 0 00-5.868.198c-2.243.175-4.606.49-6.662 1.04-2.076.553-3.75 1.322-4.702 2.343l-.856-.8c1.184-1.267 3.123-2.106 5.256-2.675 2.152-.574 4.594-.898 6.873-1.076a71.842 71.842 0 018.286-.144l.122.007.046.004a.666.666 0 01.109.022c.075.028.401.425.334.861a1.109 1.109 0 01-.42.28 1.152 1.152 0 01-.054.005zm43.046 34.527c.261 0-3.261-2.611-10.304-5.303l10.304 5.304z" fill="#fff"/><path fill-rule="evenodd" clip-rule="evenodd" d="M160.429 55.933a.604.604 0 01-.297.077v-1.17a.575.575 0 00-.483.88.284.284 0 00.033.042l-.021-.02a4.665 4.665 0 00-.378-.29 23.249 23.249 0 00-1.855-1.162c-1.701-.974-4.315-2.287-7.809-3.622l.418-1.094c3.55 1.357 6.218 2.696 7.973 3.7a24.52 24.52 0 011.952 1.224c.208.148.373.275.483.375.044.04.121.111.179.198a.599.599 0 01-.195.862zm-.746-.17l-.001-.001.001.001zM60.864 14.232C26.287 24.944 1.171 57.175 1.171 95.272c0 46.851 37.98 84.83 84.829 84.83 46.85 0 84.829-37.979 84.829-84.83a84.837 84.837 0 00-3.467-24.08l1.123-.332A86.027 86.027 0 01172 95.273c0 47.496-38.503 86-86 86-47.496 0-86-38.504-86-86 0-38.625 25.464-71.3 60.518-82.16l.346 1.119z" fill="#fff"/><path fill-rule="evenodd" clip-rule="evenodd" d="M19.447 75.907c0-.305.096-.64.287-1.002.19-.363.43-.716.715-1.06a4.8 4.8 0 01.916-.858c.325-.229.64-.343.945-.343.42 0 .85.21 1.288.63.439.42.811.782 1.117 1.087a16.18 16.18 0 011.631 2.033c.478.706.945 1.44 1.403 2.204a65.276 65.276 0 015.411 11.365 91.432 91.432 0 013.464 12.11 15.518 15.518 0 011.23-2.977c.516-.955 1.04-1.909 1.575-2.863a285.69 285.69 0 013.006-5.411c1.012-1.775 2.033-3.56 3.063-5.353a1154.79 1154.79 0 003.493-6.098 106.234 106.234 0 013.664-5.983c.115-.19.258-.41.43-.659.172-.248.362-.496.572-.744.21-.248.42-.458.63-.63.21-.171.43-.257.658-.257.42 0 .821.162 1.203.486.382.325.572.697.572 1.117a.871.871 0 01-.2.544c-.134.172-.258.334-.372.486a30.889 30.889 0 00-2.949 4.38 360.056 360.056 0 01-2.605 4.61 418.944 418.944 0 00-4.81 8.502 742.349 742.349 0 00-4.637 8.56c-.305.572-.65 1.202-1.03 1.889a106.92 106.92 0 00-1.146 2.118 44.168 44.168 0 00-1.059 2.147 12.218 12.218 0 00-.716 1.919 8.583 8.583 0 00-.315 1.402 3.527 3.527 0 01-.314 1.117 1.787 1.787 0 01-.716.744c-.325.191-.83.286-1.517.286-.459 0-.802-.114-1.03-.343a2.145 2.145 0 01-.516-.859 4.081 4.081 0 01-.2-1.088 5.366 5.366 0 00-.144-1.031c-.687-4.275-1.803-8.569-3.35-12.882a111.948 111.948 0 00-5.238-12.31 196.09 196.09 0 00-1.431-2.69 14.631 14.631 0 00-1.718-2.52c-.19-.19-.449-.467-.773-.83-.324-.363-.487-.678-.487-.945zm139.318 23.05c0-.847-.357-1.271-1.071-1.271-.49 0-.87.19-1.137.569-.268.379-.513.747-.737 1.104-.401.625-1.004 1.45-1.807 2.476a36.089 36.089 0 01-2.61 2.978 22.638 22.638 0 01-2.878 2.51c-.981.714-1.873 1.071-2.676 1.071-.536 0-.949-.279-1.239-.837-.29-.558-.501-1.204-.635-1.941a14.652 14.652 0 01-.234-2.175 54.165 54.165 0 01-.034-1.606c0-1.16.078-2.398.234-3.714.156-1.316.413-2.554.77-3.715.178-.49.424-1.137.736-1.94.312-.804.468-1.45.468-1.941 0-.446-.167-.736-.502-.87a2.76 2.76 0 00-1.037-.2c-.625 0-1.104.21-1.439.635a6.655 6.655 0 00-.836 1.372 80.594 80.594 0 00-.97 2.04 54.513 54.513 0 01-1.506 2.979 182.265 182.265 0 01-1.841 3.313 31.946 31.946 0 01-1.974 3.078c-.67.915-1.316 1.674-1.941 2.276-.625.602-1.182.903-1.673.903-.402 0-.647-.201-.736-.602a4.81 4.81 0 01-.134-1.004c0-2.543.513-4.919 1.539-7.127a21.529 21.529 0 014.15-5.99 21.94 21.94 0 013.112-2.71 48.225 48.225 0 013.446-2.242c.178-.09.335-.19.469-.302.133-.111.2-.279.2-.502 0-.49-.245-.959-.736-1.405-.49-.446-.981-.67-1.472-.67-1.963 0-3.848.67-5.655 2.008-1.807 1.339-3.414 3.001-4.819 4.986a28.355 28.355 0 00-3.569 6.84c-.216.328-.399.625-.55.89-.357.714-.87 1.584-1.54 2.61a25.624 25.624 0 01-2.275 2.978 18.194 18.194 0 01-2.643 2.476c-.915.692-1.819 1.038-2.711 1.038-.536 0-.948-.134-1.238-.402a2.345 2.345 0 01-.636-1.004 4.813 4.813 0 01-.234-1.305 26.668 26.668 0 01-.034-1.305c0-1.561.045-3.123.134-4.685a82.29 82.29 0 00.134-4.684c0-.49-.022-1.093-.067-1.807a10.202 10.202 0 00-.368-2.142c-.201-.714-.502-1.316-.903-1.807-.402-.49-.937-.736-1.607-.736-.847 0-1.84.49-2.978 1.472a32.769 32.769 0 00-3.38 3.414 56.458 56.458 0 00-3.112 3.948 211.854 211.854 0 00-2.175 3.079c.179-1.294.402-2.588.67-3.882a23.274 23.274 0 011.138-3.815 54.69 54.69 0 001.171-3.513c.379-1.272.568-2.488.568-3.648 0-.713-.145-1.271-.435-1.673-.29-.401-.814-.602-1.573-.602-.847 0-1.661.335-2.442 1.004-.781.669-1.26 1.405-1.439 2.208a65.179 65.179 0 00-.602 3.146c-.179 1.07-.38 2.12-.603 3.145-.334 1.605-.67 3.242-1.01 4.914-.039.043-.076.09-.113.14-.312.423-.58.791-.803 1.104-.401.624-1.048 1.46-1.94 2.509a37.791 37.791 0 01-2.945 3.079 27.571 27.571 0 01-3.213 2.61c-1.07.736-2.007 1.082-2.81 1.037a7.89 7.89 0 001.17-2.476c.246-.892.369-1.785.369-2.677 0-1.428-.223-2.833-.67-4.216a27.642 27.642 0 00-1.672-4.05 132.075 132.075 0 00-2.075-3.914 38.48 38.48 0 01-1.874-3.882 32.498 32.498 0 001.07-3.246 12.7 12.7 0 00.47-3.38c0-.357-.034-.736-.101-1.137a5.376 5.376 0 00-.335-1.171 2.4 2.4 0 00-.67-.938 1.554 1.554 0 00-1.036-.368c-.803 0-1.517.29-2.142.87a7.192 7.192 0 00-1.54 2.075c-.4.803-.713 1.65-.936 2.543-.223.893-.335 1.673-.335 2.343 0 1.204.201 2.386.603 3.547-1.648 5.993-5.256 10.871-8.82 15.326a19.574 19.574 0 01-2.944 2.978c-1.07.87-2.23 1.584-3.48 2.141a9.734 9.734 0 01-4.015.837c-1.562 0-2.678-.435-3.347-1.305-.669-.881-1.003-2.075-1.003-3.592 0-.847.11-1.795.334-2.822 1.026-.357 2.141-1.026 3.346-2.007a24.892 24.892 0 003.38-3.391 22.024 22.024 0 002.61-3.96c.691-1.36 1.037-2.61 1.037-3.725 0-1.16-.323-2.13-.97-2.89-.647-.758-1.573-1.137-2.778-1.137-1.784 0-3.424.691-4.919 2.075-1.494 1.383-2.777 3.067-3.848 5.052a28.917 28.917 0 00-2.476 6.19c-.58 2.142-.87 3.972-.87 5.489 0 1.204.134 2.353.402 3.446.267 1.093.702 2.053 1.305 2.878a6.946 6.946 0 002.308 2.008c.938.513 2.075.769 3.414.769 1.83 0 3.591-.301 5.287-.914a20.106 20.106 0 004.751-2.476 23.552 23.552 0 004.05-3.637c3.082-3.475 5.844-7.46 7.68-11.745a47.237 47.237 0 001.172-2.978 28.537 28.537 0 011.64 2.844 35.282 35.282 0 011.505 3.38c.446 1.16.814 2.32 1.104 3.48.29 1.16.436 2.253.436 3.279 0 1.696-.458 3.09-1.372 4.183-.915 1.093-2.265 1.639-4.05 1.639-.892 0-1.717-.089-2.476-.267-.758-.178-1.517-.513-2.275-1.004a29.92 29.92 0 00-.569-.335c-.156-.089-.368-.133-.636-.133-.713 0-1.07.334-1.07 1.003 0 .313.067.581.2.804.134.223.312.446.536.669.981.937 2.22 1.539 3.714 1.807 1.494.267 2.889.401 4.183.401 2.41 0 4.606-.279 6.592-.836 1.985-.558 3.792-1.372 5.42-2.443 1.63-1.071 3.135-2.387 4.518-3.949.453-.51.897-1.042 1.335-1.596-.587 3.196-.881 6.316-.881 9.36 0 .446.111.836.335 1.171.222.334.58.502 1.07.502.625 0 1.172-.223 1.64-.67a5.312 5.312 0 001.104-1.472c.759-1.695 1.54-3.357 2.343-4.986a53.45 53.45 0 012.676-4.785 105.226 105.226 0 012.678-4.082c.981-1.428 2.03-2.677 3.145-3.748.178-.178.424-.402.736-.67.313-.267.58-.401.803-.401.268 0 .435.178.502.536a4.8 4.8 0 01.101.803c0 1.294-.045 2.565-.134 3.814a53.666 53.666 0 00-.134 3.815c0 .848.033 1.785.1 2.811s.268 1.985.603 2.878c.334.892.825 1.639 1.472 2.242.647.602 1.55.903 2.71.903 1.25 0 2.533-.401 3.849-1.205a20.925 20.925 0 003.748-2.944 26.232 26.232 0 002.417-2.721c.028.37.071.764.129 1.182.112.803.312 1.561.603 2.275.29.714.702 1.316 1.238 1.807.535.491 1.204.736 2.007.736.893 0 1.796-.335 2.711-1.004a17.513 17.513 0 002.643-2.409 27.98 27.98 0 002.309-2.911c.692-1.004 1.261-1.84 1.707-2.51-.045.803-.022 1.796.067 2.978.089 1.183.312 2.32.669 3.414.357 1.093.87 2.03 1.539 2.811.669.78 1.562 1.171 2.677 1.171 1.16 0 2.331-.335 3.514-1.004a17.539 17.539 0 003.346-2.477 29.72 29.72 0 002.911-3.145 96.914 96.914 0 002.276-2.945c.223-.356.524-.803.903-1.338s.569-1.004.569-1.406zM58.739 86.577c.446 0 .747.167.903.501.157.335.234.692.234 1.049 0 .892-.245 1.829-.736 2.788a17.7 17.7 0 01-1.807 2.833 17.746 17.746 0 01-2.342 2.488c-.847.736-1.628 1.338-2.342 1.785.089-.58.334-1.517.736-2.789a32.947 32.947 0 011.472-3.837c.58-1.283 1.205-2.41 1.874-3.369.67-.97 1.338-1.45 2.008-1.45z" fill="#fff"/><path d="M46.593 135.404v5.002h-.555v-4.526H43.99l-.088 1.872c-.037.694-.106 1.224-.208 1.591-.102.364-.253.632-.453.804-.2.173-.467.259-.8.259h-.213v-.49l.172-.009c.317-.006.545-.16.684-.462.138-.302.23-.842.273-1.619l.101-2.422h3.135zm4.647 5.002c-.056-.157-.091-.39-.107-.698a1.936 1.936 0 01-.744.587 2.273 2.273 0 01-.953.204c-.48 0-.87-.134-1.17-.403a1.313 1.313 0 01-.443-1.017c0-.487.202-.872.605-1.156.407-.283.973-.425 1.697-.425h1.004v-.569c0-.357-.111-.638-.333-.841-.22-.207-.54-.31-.962-.31-.385 0-.704.099-.957.296-.253.197-.38.435-.38.712l-.554-.005c0-.397.185-.741.555-1.031.37-.292.824-.439 1.364-.439.558 0 .997.14 1.317.421.324.277.49.666.5 1.165v2.367c0 .484.05.846.152 1.087v.055h-.592zm-1.739-.397c.37 0 .7-.09.99-.269.292-.178.505-.417.638-.716v-1.101h-.99c-.552.007-.983.108-1.294.306-.312.194-.467.462-.467.804 0 .281.103.513.31.698.209.185.48.278.813.278zm7.499.397h-.554v-2.293H53.75v2.293h-.555v-5.002h.555v2.242h2.696v-2.242H57v5.002zm1.369-.467l.245-.319c.388-.527.612-1.297.67-2.311l.088-1.905h2.955v4.535h.517v1.937h-.55v-1.47h-3.759v1.47h-.531l.004-1.937h.36zm.638 0h2.765v-4.017h-1.873l-.06 1.299c-.055 1.193-.333 2.099-.832 2.718zm5.497-4.535v4.535h2.224v-4.535h.555v4.535h2.205v-4.535h.555v5.002h-6.094v-5.002h.555zm10.084 5.002c-.056-.157-.091-.39-.107-.698a1.936 1.936 0 01-.744.587 2.273 2.273 0 01-.952.204c-.481 0-.871-.134-1.17-.403a1.313 1.313 0 01-.444-1.017c0-.487.202-.872.606-1.156.407-.283.972-.425 1.697-.425h1.003v-.569c0-.357-.111-.638-.333-.841-.219-.207-.54-.31-.962-.31-.385 0-.704.099-.957.296-.253.197-.379.435-.379.712l-.555-.005c0-.397.185-.741.555-1.031.37-.292.825-.439 1.364-.439.558 0 .997.14 1.318.421.323.277.49.666.499 1.165v2.367c0 .484.05.846.153 1.087v.055h-.592zm-1.739-.397c.37 0 .7-.09.99-.269a1.57 1.57 0 00.638-.716v-1.101h-.99c-.551.007-.983.108-1.294.306-.311.194-.467.462-.467.804 0 .281.103.513.31.698.21.185.48.278.813.278zm3.449-2.062c0-.814.16-1.457.477-1.928.32-.472.762-.708 1.326-.708.324 0 .599.073.823.218v-2.224h.55v2.242c.229-.157.512-.236.851-.236.534 0 .96.214 1.281.643.32.428.495 1.025.523 1.789l.004.301c0 .761-.16 1.362-.48 1.803-.321.437-.76.656-1.318.656-.333 0-.62-.072-.86-.217v2.044h-.55v-2.039a1.6 1.6 0 01-.833.212c-.527 0-.95-.198-1.266-.596-.318-.401-.492-.954-.523-1.66l-.005-.3zm5.285 0c0-.672-.122-1.201-.365-1.586-.24-.386-.578-.578-1.013-.578-.314 0-.558.068-.73.203v3.87c.194.12.44.18.74.18.43 0 .767-.172 1.007-.517.24-.349.36-.873.36-1.572zm-4.73.097c0 .628.116 1.119.347 1.47.231.348.564.522.999.522.29 0 .531-.063.725-.189v-3.875c-.178-.126-.417-.189-.716-.189-.432 0-.766.192-1.003.578-.235.382-.352.943-.352 1.683zm9.737-2.169h-1.822v4.531h-.554v-4.531H82.46v-.471h4.13v.471zm4.753 4.531h-.555v-2.293h-2.695v2.293h-.555v-5.002h.555v2.242h2.695v-2.242h.555v5.002zm4.642 0c-.056-.157-.091-.39-.106-.698a1.936 1.936 0 01-.745.587 2.273 2.273 0 01-.952.204c-.481 0-.871-.134-1.17-.403a1.313 1.313 0 01-.444-1.017c0-.487.202-.872.606-1.156.407-.283.972-.425 1.697-.425h1.003v-.569c0-.357-.111-.638-.333-.841-.219-.207-.54-.31-.962-.31-.385 0-.704.099-.957.296-.252.197-.379.435-.379.712l-.555-.005c0-.397.185-.741.555-1.031.37-.292.825-.439 1.364-.439.558 0 .997.14 1.318.421.323.277.49.666.5 1.165v2.367c0 .484.05.846.152 1.087v.055h-.592zm-1.739-.397c.37 0 .7-.09.99-.269a1.57 1.57 0 00.638-.716v-1.101h-.99c-.551.007-.983.108-1.294.306-.311.194-.467.462-.467.804 0 .281.103.513.31.698.21.185.48.278.813.278zm7.305-4.605v5.002h-.554v-2.016h-1.554l-1.22 2.016h-.61l1.257-2.085a1.402 1.402 0 01-.8-.518 1.489 1.489 0 01-.282-.906c0-.453.162-.815.485-1.086.327-.272.768-.407 1.323-.407h1.955zm-3.208 1.502c0 .293.092.534.277.722.188.188.449.285.781.291h1.596v-2.044h-1.415c-.385 0-.689.093-.911.278-.219.185-.328.436-.328.753zm8.854 3.126c.385 0 .707-.108.966-.324a1.15 1.15 0 00.425-.846h.532a1.574 1.574 0 01-.287.837c-.175.25-.41.445-.702.587-.29.142-.602.213-.934.213-.657 0-1.178-.228-1.563-.685-.382-.456-.573-1.069-.573-1.84v-.166c0-.493.086-.929.259-1.309a2 2 0 01.739-.878c.324-.206.701-.31 1.133-.31.549 0 1 .164 1.355.49.357.327.548.757.573 1.29h-.532c-.024-.391-.166-.707-.425-.948-.256-.24-.58-.36-.971-.36-.499 0-.888.18-1.165.541-.274.36-.412.866-.412 1.516v.162c0 .638.138 1.136.412 1.493.277.358.667.537 1.17.537zm6.625-4.157H112v4.531h-.554v-4.531h-1.753v-.471h4.129v.471zm2.552 3.736l1.461-4.207h.596l-2.136 5.853-.11.259c-.275.607-.699.911-1.272.911a1.56 1.56 0 01-.425-.065l-.005-.458.287.028c.271 0 .49-.068.656-.203.17-.133.313-.363.43-.689l.245-.675-1.886-4.961h.606l1.553 4.207zm2.543.328l.245-.319c.388-.527.612-1.297.67-2.311l.088-1.905h2.955v4.535h.517v1.937h-.55v-1.47h-3.759v1.47h-.531l.004-1.937h.361zm.638 0h2.765v-4.017h-1.873l-.06 1.299c-.055 1.193-.333 2.099-.832 2.718zm8.193-4.535h.554v5.002h-.554v-4.11l-2.7 4.11h-.551v-5.002h.551v4.115l2.7-4.115zm5.686 0v5.002h-.554v-2.016h-1.554l-1.22 2.016h-.611l1.258-2.085a1.403 1.403 0 01-.8-.518 1.489 1.489 0 01-.282-.906c0-.453.162-.815.485-1.086.327-.272.768-.407 1.323-.407h1.955zm-3.208 1.502c0 .293.092.534.277.722.188.188.449.285.782.291h1.595v-2.044h-1.415c-.385 0-.689.093-.911.278-.219.185-.328.436-.328.753zm-79.791 10.541l2.483 5.941 2.492-5.941h.758v6.732H55.6v-2.931l.047-3.006-2.506 5.937h-.44l-2.496-5.913.046 2.963v2.95h-.569v-6.732h.754zm10.468 6.732c-.056-.157-.091-.39-.107-.698a1.945 1.945 0 01-.744.587 2.272 2.272 0 01-.953.203c-.48 0-.87-.134-1.17-.402a1.313 1.313 0 01-.443-1.017c0-.487.202-.872.605-1.156.407-.283.973-.425 1.697-.425h1.004v-.569c0-.357-.111-.638-.333-.841-.22-.207-.54-.31-.962-.31-.385 0-.704.099-.957.296-.253.197-.38.434-.38.712l-.554-.005c0-.397.185-.741.555-1.031.37-.293.824-.439 1.364-.439.558 0 .997.14 1.317.421.324.277.49.665.5 1.165v2.367c0 .484.05.846.152 1.086v.056h-.591zm-1.739-.398c.37 0 .7-.089.99-.268.292-.179.505-.417.637-.716v-1.101h-.989c-.552.006-.983.108-1.294.305-.312.195-.467.463-.467.805 0 .28.103.513.31.698.209.185.48.277.813.277zm7.68-2.052c0 .779-.173 1.399-.518 1.858-.345.456-.808.684-1.387.684-.685 0-1.209-.24-1.572-.721v2.552h-.55v-6.926h.513l.028.708c.36-.533.883-.8 1.567-.8.598 0 1.066.226 1.405.68.343.453.514 1.081.514 1.886v.079zm-.555-.098c0-.638-.131-1.142-.393-1.511-.262-.37-.627-.555-1.096-.555-.34 0-.63.081-.874.245-.243.163-.43.401-.56.712v2.399c.133.287.323.506.57.657.246.151.537.226.873.226.466 0 .828-.184 1.087-.554.262-.373.393-.913.393-1.619zm5.071-2.455h.555v5.003h-.554v-4.11l-2.7 4.11h-.55v-5.003h.55v4.115l2.7-4.115zm5.882 5.003h-.555v-2.293H73.99v2.293h-.555v-5.003h.555v2.243h2.696v-2.243h.555v5.003zm2.094-3.186h1.442c.37 0 .694.068.971.204.28.132.492.317.634.555.145.237.217.513.217.827 0 .484-.166.873-.5 1.165-.329.29-.776.435-1.34.435h-1.974v-5.003h.55v1.817zm0 .472v2.247h1.433c.398 0 .71-.1.934-.301.228-.2.342-.474.342-.823 0-.332-.11-.601-.333-.804-.218-.206-.519-.313-.901-.319h-1.475zm4.96 2.714h-.554v-5.003h.555v5.003zm5.489-3.158h-.925v3.158h-.569v-6.732h.57v3.089h.896l2.603-3.089h.717l-2.765 3.311 2.968 3.421h-.707l-2.788-3.158zm8.313.708c0 .779-.173 1.399-.518 1.858-.345.456-.808.684-1.387.684-.684 0-1.208-.24-1.572-.721v2.552h-.55v-6.926h.513l.028.708c.36-.533.883-.8 1.567-.8.598 0 1.067.226 1.406.68.342.453.513 1.081.513 1.886v.079zm-.555-.098c0-.638-.131-1.142-.393-1.511-.262-.37-.627-.555-1.096-.555-.339 0-.63.081-.874.245-.243.163-.43.401-.56.712v2.399c.133.287.323.506.57.657.246.151.538.226.873.226.466 0 .828-.184 1.087-.554.262-.373.393-.913.393-1.619zm1.479-.027c0-.481.093-.914.278-1.299.188-.386.451-.685.79-.897a2.13 2.13 0 011.161-.324c.666 0 1.205.234 1.618.703.413.465.62 1.083.62 1.854v.115c0 .484-.094.92-.282 1.309a2.08 2.08 0 01-.786.892c-.339.21-.726.314-1.161.314-.663 0-1.202-.232-1.618-.698-.413-.468-.62-1.088-.62-1.858v-.111zm.555.152c0 .598.154 1.09.463 1.475.311.382.718.573 1.22.573.499 0 .903-.191 1.211-.573.312-.385.467-.892.467-1.521v-.106c0-.382-.07-.732-.212-1.05a1.7 1.7 0 00-.597-.735 1.508 1.508 0 00-.878-.263c-.493 0-.895.194-1.207.582-.311.385-.467.891-.467 1.517v.101zm6.528-.55l1.351-2.03h.656l-1.697 2.455 1.771 2.548h-.652l-1.424-2.118-1.424 2.118h-.652l1.766-2.548-1.696-2.455h.651l1.35 2.03zm6.321-2.03h.554v5.003h-.554v-4.11l-2.7 4.11h-.551v-5.003h.551v4.115l2.7-4.115zm5.881 5.003h-.555v-2.293h-2.696v2.293h-.554v-5.003h.554v2.243h2.696v-2.243h.555v5.003zm1.179-2.575c0-.481.092-.914.277-1.299a2.13 2.13 0 01.791-.897 2.127 2.127 0 011.16-.324c.666 0 1.205.234 1.618.703.413.465.62 1.083.62 1.854v.115c0 .484-.094.92-.282 1.309a2.08 2.08 0 01-.786.892c-.339.21-.726.314-1.161.314-.662 0-1.202-.232-1.618-.698-.413-.468-.619-1.088-.619-1.858v-.111zm.554.152c0 .598.155 1.09.463 1.475.311.382.718.573 1.22.573.5 0 .903-.191 1.212-.573.311-.385.467-.892.467-1.521v-.106c0-.382-.071-.732-.213-1.05a1.704 1.704 0 00-.596-.735 1.513 1.513 0 00-.879-.263c-.493 0-.895.194-1.207.582-.311.385-.467.891-.467 1.517v.101zm8.346-2.58h.554v5.003h-.554v-4.11l-2.7 4.11h-.551v-5.003h.551v4.115l2.7-4.115zm-.028-1.803c0 .355-.122.641-.365.86-.241.219-.564.329-.971.329-.401 0-.725-.108-.971-.324-.244-.219-.365-.507-.365-.865h.471c0 .256.076.452.227.587.154.136.367.204.638.204s.482-.071.633-.213c.154-.142.231-.334.231-.578h.472z" fill="#fff"/></svg>