<svg width="85" height="85" fill="none" xmlns="http://www.w3.org/2000/svg"><path d="M71.72 50.474a10.64 10.64 0 00-10.626-10.627H23.907a5.32 5.32 0 01-5.313-5.313v-8.348a10.613 10.613 0 007.592-7.59h32.63a10.625 10.625 0 100-5.312h-32.63a10.604 10.604 0 10-12.904 12.904v8.343A10.641 10.641 0 0023.909 45.16h37.185a5.321 5.321 0 015.313 5.315v7.966h-7.97v7.97h-32.25a10.625 10.625 0 100 5.312h32.252v7.968h21.25V58.44H71.72v-7.966zm-2.657-39.846a5.313 5.313 0 110 10.626 5.313 5.313 0 010-10.626zM10.625 15.94a5.312 5.312 0 1110.625 0 5.312 5.312 0 01-10.625 0zm5.313 58.438a5.313 5.313 0 110-10.626 5.313 5.313 0 010 10.626zm58.437-10.625v10.625H63.75V63.753h10.625z" fill="#545A2F"/></svg>