<svg width="87" height="85" fill="none" xmlns="http://www.w3.org/2000/svg"><path d="M45.794 38.25c-1.728-.425-3.456-1.275-4.752-2.55-1.296-.425-1.728-1.7-1.728-2.55 0-.85.432-2.125 1.296-2.55 1.296-.85 2.592-1.7 3.888-1.275a7.6 7.6 0 016.049 2.975l3.888-5.1c-1.296-1.275-2.592-2.125-3.888-2.975-1.296-.85-3.024-1.275-4.752-1.275V17H40.61v5.95c-2.16.425-4.32 1.7-6.048 3.4-1.728 2.125-3.024 4.675-2.592 7.225 0 2.55.864 5.1 2.592 6.8 2.16 2.125 5.184 3.4 7.776 4.675 1.296.425 3.024 1.275 4.32 2.125.865.85 1.297 2.125 1.297 3.4s-.432 2.55-1.297 3.825c-1.296 1.275-3.024 1.7-4.32 1.7-1.728 0-3.888-.425-5.184-1.7-1.296-.85-2.592-2.125-3.456-3.4l-4.32 4.675c1.296 1.7 2.592 2.975 4.32 4.25 2.16 1.275 4.752 2.55 7.344 2.55V68h4.752v-6.375c2.593-.425 4.753-1.7 6.48-3.4 2.161-2.125 3.457-5.525 3.457-8.5 0-2.55-.864-5.525-3.024-7.225-2.16-2.125-4.32-3.4-6.913-4.25zM43.203 8.5c-19.01 0-34.563 15.3-34.563 34s15.553 34 34.562 34c19.01 0 34.562-15.3 34.562-34s-15.553-34-34.562-34zm0 63.325c-16.417 0-29.81-13.175-29.81-29.325s13.393-29.325 29.81-29.325c16.417 0 29.81 13.175 29.81 29.325S59.62 71.825 43.203 71.825z" fill="#545A2F"/></svg>