<svg width="207" height="110" fill="none" xmlns="http://www.w3.org/2000/svg"><path fill-rule="evenodd" clip-rule="evenodd" d="M67.746 15.509c31.933-12.071 56.385-4.26 73.391 6.457l-.454.617C123.847 11.973 99.679 4.244 68.051 16.2l-.305-.691z" fill="#fff"/><path fill-rule="evenodd" clip-rule="evenodd" d="M80.872 11.135a.375.375 0 01-.178.152l-.318-.626a.363.363 0 00-.173.148.311.311 0 00-.042.202c.011.084.055.138.062.147a.23.23 0 00.024.027 1.766 1.766 0 00-.14-.094 10.84 10.84 0 00-.689-.38 25.69 25.69 0 00-2.542-1.123c-2.102-.8-4.795-1.526-7.188-1.35l-.061-.686c2.576-.19 5.406.588 7.543 1.401 1.074.41 1.987.832 2.623 1.16.317.162.57.303.74.409.084.051.157.1.21.142a.58.58 0 01.098.094.349.349 0 01.074.168.322.322 0 01-.043.21zm-.62.054l-.002-.002.002.002zm-11.02-4.463c.227.27.357.514.395.613l-.427.187a2.608 2.608 0 00-1.186-1.153c-.765-.36-1.985-.444-3.787.766l-.245-.417c1.898-1.275 3.28-1.243 4.219-.8.462.219.8.53 1.031.804zm-.964 8.166c-.245.11-.444.153-.508.16l-.014-.091c.05-.006.237-.046.474-.152a2.29 2.29 0 00.757-.537c.48-.522.806-1.424.26-2.955l.102-.028c.553 1.553.227 2.49-.279 3.041a2.41 2.41 0 01-.792.562zm-.123 1.224c-.472-.468-.404-.966-.385-1.061l.799.068c-.01.05-.055.39.257.7.29.288.97.627 2.659.58l.034.529c-1.87.052-2.87-.325-3.364-.816z" fill="#fff"/><path fill-rule="evenodd" clip-rule="evenodd" d="M67.991 14.88c-.062.103-.125.163-.229.173l-.016-.092c.032-.003.07-.018.13-.119.06-.099.133-.262.246-.527l.048-.11c.232-.543.617-1.443 1.34-2.916l.117.032a56.042 56.042 0 00-1.337 2.911l-.048.112a4.957 4.957 0 01-.25.536zm-.005.588c-.093-.053-.27-.166-.236-.347l.715.065a.137.137 0 00-.047-.128 6.25 6.25 0 00.45.216l.097.044c.476.214 1.267.57 2.544 1.199l-.411.42c-1.265-.624-2.047-.975-2.52-1.188l-.097-.044c-.223-.1-.39-.176-.495-.237zm.428-.413l.004.003a.018.018 0 01-.004-.003zm1.037-7.152a.25.25 0 01.176.149l-.423.173a.207.207 0 00.144.121c.051.012.09 0 .094-.002l.004-.001-.04.026c-.043.028-.091.064-.152.109-.047.034-.101.075-.166.121-.28.202-.687.47-1.19.64a2.964 2.964 0 01-1.787.054c-.671-.19-1.389-.636-2.13-1.467l.343-.303c.697.783 1.343 1.17 1.912 1.331.567.16 1.078.1 1.514-.047.44-.148.803-.385 1.07-.577.05-.036.1-.072.146-.107.07-.052.135-.1.184-.133a.642.642 0 01.15-.079.282.282 0 01.151-.008z" fill="#fff"/><path fill-rule="evenodd" clip-rule="evenodd" d="M68.22 15.02a.068.068 0 01-.051.033l-.013-.092a.033.033 0 00-.024.016.015.015 0 00-.002.006v-.003a.27.27 0 00-.018-.064c-.014-.038-.034-.084-.058-.14a8.705 8.705 0 01-.058-.135 3.029 3.029 0 01-.244-.938 1.935 1.935 0 01.306-1.217c.27-.42.743-.833 1.525-1.197l.044.082c-.769.358-1.225.761-1.483 1.162-.258.4-.32.803-.293 1.164.026.36.142.68.238.91l.056.132c.025.058.046.108.061.147a.342.342 0 01.024.089c0 .012 0 .029-.01.045zm-.368.436c-.08-.055-.118-.132-.103-.21l.67.06c.013-.07-.022-.14-.093-.19a.363.363 0 00-.125-.052.258.258 0 00-.03-.004h.019l.124-.001.15-.003c.252-.004.618 0 1.013.073.398.073.828.217 1.2.493.372.275.668.667.832 1.217l-.661.098c-.144-.48-.391-.788-.661-.988a2.107 2.107 0 00-.882-.36 4.21 4.21 0 00-.941-.056c-.07.002-.137.004-.184.003a.905.905 0 01-.165-.014.448.448 0 01-.163-.066zm46.927-9.993a.725.725 0 01-.037.182l-.645-.146v-.002a2.032 2.032 0 00.021-.29 4.953 4.953 0 00-.772-2.595A4.256 4.256 0 00111.351.97c-.941-.39-2.225-.583-3.984-.376l-.103-.505c1.875-.22 3.314-.02 4.41.433 1.093.452 1.811 1.144 2.276 1.863a5.377 5.377 0 01.841 2.82c0 .1-.005.187-.012.257zM67.563 17.006c.077.01.141.02.182.032l-.1.137a1.241 1.241 0 00-.132-.022 6.138 6.138 0 00-.283-.028c-.23-.019-.538-.035-.894-.037-.714-.004-1.62.046-2.506.23-.885.185-1.744.504-2.373 1.036-.628.532-1.034 1.283-.992 2.344l-.244.003c-.043-1.086.373-1.872 1.039-2.436.665-.563 1.572-.897 2.491-1.089a12.608 12.608 0 012.587-.238c.367.002.684.018.924.037.12.01.222.02.301.031zm.117-2.136a.33.33 0 01.065.105l-.536.064.006.015-.015-.02a1.092 1.092 0 00-.08-.082 3.146 3.146 0 00-.327-.269 5.707 5.707 0 00-1.297-.686c-1.134-.433-2.827-.722-5.088-.183l-.19-.327c2.429-.579 4.294-.272 5.557.21a6.28 6.28 0 011.426.755c.161.117.286.223.373.306.044.042.08.08.106.112z" fill="#fff"/><path fill-rule="evenodd" clip-rule="evenodd" d="M69.436 15.102a.835.835 0 01.151-.047l.04.112a.69.69 0 00-.107.036 3.241 3.241 0 00-.219.097 6.522 6.522 0 00-.657.37 6.815 6.815 0 00-1.617 1.42c-1.002 1.24-1.584 3.068-.072 5.446l-.156.046c-1.534-2.413-.947-4.278.08-5.548a6.953 6.953 0 011.65-1.448c.258-.165.492-.292.674-.38.09-.044.17-.079.233-.104zm12.722 1.953v-.002l.625-.116c.014.057.017.13.016.198 0 .075-.005.168-.014.275-.02.213-.062.49-.135.804a6.441 6.441 0 01-.93 2.149 4.902 4.902 0 01-2.304 1.837c-1.065.41-2.423.528-4.144.169l.15-.54c1.612.336 2.823.215 3.735-.137a4.289 4.289 0 002.015-1.614c.456-.665.714-1.39.852-1.975.069-.292.106-.547.124-.738a2.68 2.68 0 00.01-.31zM114.504 5.04c.187.169.352.365.261.605l-.631-.15a.049.049 0 00-.003.024.57.57 0 00-.121-.13c-.166-.15-.467-.369-.981-.735l-.214-.153a156.63 156.63 0 01-5.551-4.124l.459-.377a157.68 157.68 0 005.531 4.11l.215.152c.501.358.837.6 1.035.778zm-.371.485l-.002-.006.002.006z" fill="#fff"/><path fill-rule="evenodd" clip-rule="evenodd" d="M67.17 17.098c.224-.14.4-.203.575-.13l-.1.207c-.046-.018-.118-.026-.337.11-.214.135-.527.38-1.032.782l-.212.169c-1.034.824-2.747 2.19-5.693 4.347l-.153-.178a159.194 159.194 0 005.685-4.341l.212-.169c.5-.398.826-.654 1.055-.797zm60.457 1.721c.12.009.244.052.337.174l-.377.381c.015.02.029.025.029.025s-.006-.002-.023-.003a1.106 1.106 0 00-.286.037c-.299.065-.777.213-1.556.46l-.327.103c-1.594.506-4.236 1.345-8.632 2.584l-.119-.562a251.698 251.698 0 008.945-2.683c.771-.245 1.272-.4 1.596-.471.161-.035.299-.054.413-.045zM67.558 16.27a.66.66 0 01.187.394l-.546.147c.01.085.045.124.045.125l-.001-.002a.677.677 0 00-.148-.094c-.183-.098-.492-.224-1.008-.43l-.216-.085c-1.051-.42-2.796-1.114-5.653-2.381l.162-.772a144.12 144.12 0 005.639 2.375l.215.085c.506.202.841.338 1.051.45.104.054.199.114.273.188zm1.768-1.111a.46.46 0 01.248-.104l.052.112a.203.203 0 00-.108.052.805.805 0 00-.161.207c-.121.203-.267.534-.495 1.066l-.096.223c-.466 1.092-1.24 2.9-2.684 5.867l-.22-.028a119.18 119.18 0 002.684-5.863l.096-.224c.227-.53.375-.867.499-1.075a.896.896 0 01.185-.233zm12.846 1.87a.062.062 0 000 .03l.615-.122c.062.271-.113.475-.304.645-.202.18-.539.42-1.041.773l-.215.15a153.569 153.569 0 00-5.556 4.078l-.399-.45a154.232 154.232 0 015.576-4.093l.215-.15c.515-.363.816-.579.986-.73a.628.628 0 00.123-.131zm.003-.006l-.003.006.003-.006zm29.458-15.519c.979.572 1.75 1.551 3.158 3.925l-.609.216c-1.42-2.394-2.13-3.247-2.952-3.727-.412-.24-.864-.394-1.501-.597l-.167-.053a30.78 30.78 0 01-2.298-.808l.307-.46c.925.37 1.644.598 2.246.789l.167.053c.632.201 1.16.377 1.649.662z" fill="#fff"/><path fill-rule="evenodd" clip-rule="evenodd" d="M62.546 18.38c.782-.495 2.03-.845 5.126-1.442l.073.146c-3.107.598-4.293.94-5.024 1.404-.365.232-.622.497-.949.852l-.086.093c-.31.337-.687.748-1.267 1.268l-.201-.087c.573-.514.946-.92 1.255-1.257l.086-.093c.326-.354.596-.636.987-.883zm58.91.959c1.317-.51 2.906-.617 6.508-.45l-.021.583c-3.609-.168-5.108-.052-6.325.419-.61.236-1.157.564-1.877 1.01l-.189.118c-.683.425-1.515.943-2.664 1.561l-.215-.527a44.329 44.329 0 002.637-1.546l.19-.118c.717-.445 1.299-.796 1.956-1.05zm-42.337 1.416c.814-.46 1.56-1.33 3.124-3.817l.556.28c-1.549 2.464-2.367 3.47-3.338 4.02-.486.274-.997.428-1.607.602l-.161.046c-.581.165-1.275.361-2.175.697l-.246-.527a27.064 27.064 0 012.227-.714l.161-.046c.615-.175 1.052-.31 1.459-.54zm32.743-16.969c.964.284 2.026.596 2.929 1.537l-.522.322c-.777-.81-1.611-1.056-2.538-1.33a16.863 16.863 0 01-.969-.309c-.653-.236-1.305-.565-1.908-1.163-.598-.594-1.135-1.44-1.59-2.695l.632-.148c.44 1.212.944 1.988 1.471 2.511.522.519 1.082.802 1.666 1.014.263.095.542.177.829.261z" fill="#fff"/><path fill-rule="evenodd" clip-rule="evenodd" d="M65.477 19.238c.462-.815.941-1.658 2.144-2.3l.124.196c-1.135.607-1.573 1.376-2.029 2.178-.148.26-.298.523-.474.785a4.487 4.487 0 01-1.588 1.479c-.767.433-1.834.784-3.399 1.007l-.037-.225c1.543-.22 2.576-.564 3.307-.976a4.25 4.25 0 001.506-1.404c.161-.24.302-.489.446-.74zm58.598 1.181c1.071-.666 2.185-1.36 3.82-1.603l.069.546c-1.527.227-2.532.851-3.585 1.506-.343.213-.69.429-1.063.635-1.518.843-3.337 1.44-6.643.824l.086-.543c3.196.595 4.903.018 6.325-.771.335-.186.661-.389.991-.594zm-44.231-2.228c.89-.23 1.69-.436 2.491-1.253l.465.391c-.934.953-1.957 1.215-2.884 1.452-.276.071-.543.14-.797.224-.565.186-1.113.452-1.65.974-.541.526-1.085 1.327-1.61 2.604l-.587-.208c.545-1.323 1.127-2.198 1.743-2.798.62-.603 1.26-.912 1.893-1.12.325-.108.635-.188.936-.266zm34.853-12.935c.07.065.121.17.078.286l-.612-.153a.203.203 0 00.057.22.19.19 0 00.053.035 1.237 1.237 0 00-.169-.035 13.686 13.686 0 00-.516-.07c-.105-.013-.22-.027-.344-.044-.731-.095-1.727-.246-2.694-.566-.966-.32-1.928-.815-2.561-1.614-.639-.804-.915-1.882-.585-3.315l.628.099c-.305 1.326-.039 2.258.492 2.926.535.675 1.366 1.116 2.264 1.413.897.297 1.835.441 2.556.535l.319.04c.222.028.418.053.566.077.105.017.215.039.302.07a.5.5 0 01.166.096zm-.423.389h-.001z" fill="#fff"/><path fill-rule="evenodd" clip-rule="evenodd" d="M67.582 16.964a.185.185 0 01.163-.014l-.101.196a.095.095 0 00.078-.005l.004-.003-.011.015a.94.94 0 00-.084.176c-.045.116-.095.269-.156.452-.03.088-.06.184-.095.286-.21.618-.518 1.447-1.02 2.225-.501.778-1.202 1.512-2.201 1.931-1.002.421-2.288.518-3.941.046l.077-.204c1.605.458 2.822.357 3.756-.035.937-.393 1.606-1.087 2.093-1.843.488-.756.79-1.566.998-2.181l.093-.278c.062-.186.115-.347.162-.468.034-.088.07-.165.106-.218a.263.263 0 01.08-.078zm59.935 2.519a.76.76 0 01.166.102l.281.258-.516.09c-.04.018-.092.044-.159.08-.129.07-.291.162-.486.274l-.301.173c-.66.376-1.568.875-2.6 1.294-2.048.83-4.69 1.383-6.843-.096l-.386-.265.858-.15c2.139-1.911 4.509-2.432 6.419-2.427a10.47 10.47 0 012.541.32c.323.083.588.17.783.244.097.037.179.072.243.103zm-9.709 2.126c1.826.983 4.002.54 5.868-.216.976-.396 1.843-.868 2.493-1.238l-8.361 1.454zm8.947-1.97l-8.344 1.451c1.893-1.47 3.904-1.874 5.537-1.87a9.86 9.86 0 012.391.301c.154.04.294.08.416.119zM67.56 16.12c.037.02.157.096.185.294l-.528.131c.025.176.132.235.144.242a.1.1 0 00.027.01h-.007a.924.924 0 00-.153 0c-.107.007-.244.021-.411.039l-.261.027c-.568.056-1.346.114-2.164.031-1.616-.164-3.513-.897-4.174-3.49l.507-.232c.55 2.155 2.134 2.848 3.708 3.007.777.079 1.522.024 2.083-.032l.247-.025c.173-.018.324-.034.44-.04.084-.006.166-.008.231 0a.408.408 0 01.126.039zm1.265-1.003c.01-.02.034-.053.098-.062l.044.112c.031-.005.04-.018.04-.018l-.001.001a.096.096 0 00-.006.038c0 .043.01.106.03.191.028.114.071.26.122.433l.078.268c.167.584.369 1.375.394 2.211.05 1.668-.603 3.541-3.69 4.291l-.071-.107c2.97-.72 3.621-2.524 3.572-4.182-.025-.827-.225-1.61-.392-2.193l-.077-.265a9.848 9.848 0 01-.123-.44.953.953 0 01-.032-.207c0-.025.003-.05.014-.071zm13.441 1.857a.25.25 0 00-.076.239l.602-.123a.321.321 0 01-.103.31.463.463 0 01-.167.094 1.503 1.503 0 01-.292.054c-.142.015-.33.028-.54.042l-.305.02c-.688.05-1.585.137-2.458.393-.873.257-1.696.676-2.263 1.37-.56.688-.899 1.682-.735 3.147l-.612.063c-.177-1.586.184-2.74.862-3.571.672-.824 1.626-1.294 2.567-1.57.942-.277 1.895-.369 2.593-.418.119-.009.228-.016.328-.022.201-.014.365-.024.493-.038a.854.854 0 00.16-.026.197.197 0 00-.054.036zm.056-.037h-.001zM92.104.958c1.423.985 1.926 2.408 1.986 2.697l-.51.109c-.039-.188-.482-1.48-1.77-2.371-1.268-.877-3.413-1.406-6.937.007l-.192-.49c3.643-1.46 5.978-.951 7.423.048z" fill="#fff"/><path fill-rule="evenodd" clip-rule="evenodd" d="M93.551 2.975c.258.123.483.288.54.64l-.512.142.002.006c.001.003 0-.002-.01-.013a.684.684 0 00-.197-.124c-.234-.112-.623-.238-1.274-.441a292.63 292.63 0 00-.272-.085A129.396 129.396 0 0184.68.666L84.82 0c3.609 1.334 5.802 2.015 7.127 2.427l.272.084c.638.2 1.062.336 1.331.464z" fill="#fff"/><path fill-rule="evenodd" clip-rule="evenodd" d="M89.484 3.89a44.34 44.34 0 012.469-2.011l.255.84a44.26 44.26 0 00-2.877 2.377 9.273 9.273 0 01-.64.547l-.246-.847c.144-.105.311-.256.564-.482.132-.119.287-.259.475-.424zm-1.902-1.034a45.5 45.5 0 012.45-.977l.294.46a44.723 44.723 0 00-2.41.961l-.427.189a9.308 9.308 0 01-.645.272l-.282-.465c.14-.049.299-.12.544-.23.131-.058.286-.128.476-.21z" fill="#fff"/><path fill-rule="evenodd" clip-rule="evenodd" d="M87.043 2.788c.258-.22.63-.518 1.2-.91l.2.56a13.446 13.446 0 00-1.465 1.145c-.08.07-.155.132-.227.178l-.189-.566c.042-.027.094-.07.175-.14l.084-.073.222-.194z" fill="#fff"/><path fill-rule="evenodd" clip-rule="evenodd" d="M93.918 3.365c.095.059.153.176.172.303l-.503.15c.012.085.055.175.125.218a.137.137 0 00.064.023c.013.002.022 0 .023 0 0 0-.008.002-.028.012a.978.978 0 00-.082.046 6.957 6.957 0 00-.307.208 20.68 20.68 0 01-.32.22c-.543.367-1.316.833-2.22 1.018-.907.187-1.947.091-3.016-.664-1.068-.755-2.145-2.153-3.145-4.52l.44-.379c.963 2.278 1.973 3.563 2.933 4.242.96.677 1.89.765 2.715.596.828-.17 1.546-.6 2.074-.956l.294-.202c.135-.095.256-.18.348-.236a.799.799 0 01.246-.112.254.254 0 01.187.033zm13.323 5.847a.37.37 0 01-.217.2l-.339-.608a.363.363 0 00-.212.194.274.274 0 00-.009.186c.019.059.053.096.056.1h.001l.011.012-.014-.011a3.177 3.177 0 00-.2-.14 18.924 18.924 0 00-.888-.535 45.024 45.024 0 00-3.153-1.637c-2.563-1.206-5.722-2.405-8.187-2.54l.054-.667c2.666.146 5.966 1.417 8.535 2.627a45.946 45.946 0 013.215 1.668c.396.228.713.421.927.561.106.07.194.13.256.179a.715.715 0 01.099.09.35.35 0 01.074.127.286.286 0 01-.009.194z" fill="#fff"/><path fill-rule="evenodd" clip-rule="evenodd" d="M107.241 9.212a.37.37 0 01-.217.2l-.339-.608a.363.363 0 00-.212.194.274.274 0 00-.009.186c.019.059.053.096.056.1h.001l.011.012-.014-.011a3.177 3.177 0 00-.2-.14 18.924 18.924 0 00-.888-.535 45.024 45.024 0 00-3.153-1.637c-2.563-1.206-5.722-2.405-8.187-2.54l.054-.667c2.666.146 5.966 1.417 8.535 2.627a45.946 45.946 0 013.215 1.668c.396.228.713.421.927.561.106.07.194.13.256.179a.715.715 0 01.099.09.35.35 0 01.074.127.286.286 0 01-.009.194zm15.068 3.683a.4.4 0 01-.196.277l-.287-.718a.38.38 0 00-.186.264.438.438 0 00.006.197c.009.033.02.055.023.063l.009.014-.004-.005-.013-.018-.047-.057c-.083-.096-.218-.24-.403-.43a89.352 89.352 0 00-1.572-1.547c-.438-.425-.928-.896-1.451-1.4a570.186 570.186 0 01-3.398-3.288l.445-.602a531.002 531.002 0 003.39 3.281c.524.504 1.015.977 1.456 1.404a92.35 92.35 0 011.586 1.562c.187.19.336.35.436.466.047.055.095.115.13.17a.572.572 0 01.067.148c.01.036.029.118.009.22zm-19.986 4.026c-.366.08-.648-.17-.705-.239l.126-.283.004.005.011.01a.674.674 0 00.157.107c.099.05.231.085.38.052.289-.063.674-.391 1.014-1.518l.19.156c-.363 1.204-.8 1.628-1.177 1.71zm-.358.207a1.53 1.53 0 01.35-.19l.421.232h-.001c-.005.003-.027.012-.06.03a1.15 1.15 0 00-.138.085.592.592 0 00-.234.292c-.067.232.092.585 1.197 1.018l-.443.224c-1.229-.48-1.522-.927-1.42-1.28.05-.171.19-.31.328-.41zm6.925 3.579a1.51 1.51 0 01.255.002l-.019.074a1.429 1.429 0 00-.228 0 4.04 4.04 0 00-1.663.48c-.863.474-1.709 1.403-1.753 3.204l-.101-.002c.045-1.82.901-2.773 1.794-3.263a4.166 4.166 0 011.715-.495z" fill="#fff"/><path fill-rule="evenodd" clip-rule="evenodd" d="M101.822 16.894c-.054.038-.132.078-.204-.012l.129-.303c-.018-.022-.034-.018-.034-.018s.008-.002.028-.016c.044-.03.115-.095.239-.212l.051-.049c.251-.236.667-.628 1.373-1.23l.096.338c-.702.597-1.115.986-1.364 1.222l-.052.048a2.75 2.75 0 01-.262.232zm-.193.271c-.019-.053-.039-.157.204-.227l.543.243c.093-.027.106-.06.108-.069l.003.014c.014.039.056.104.14.229l.035.05c.169.249.451.661.838 1.352l-.848.062a16.25 16.25 0 00-.831-1.34l-.034-.05a1.449 1.449 0 01-.158-.264zm.855-.055zm6.351 3.724c.116-.1.205-.143.31-.128l-.02.08c-.046-.008-.101.005-.215.102a7.61 7.61 0 00-.516.53l-.104.114a85.897 85.897 0 01-2.828 2.935l-.081-.05a86.69 86.69 0 002.826-2.932l.104-.113c.247-.267.406-.438.524-.538z" fill="#fff"/><path fill-rule="evenodd" clip-rule="evenodd" d="M101.731 16.927c-.039.02-.079.006-.107-.027l.129-.277c-.023-.027-.057-.04-.091-.023-.025.013-.038.038-.041.042l-.003.006.007-.021a2.2 2.2 0 00.026-.099l.03-.114c.051-.19.13-.453.26-.698.132-.247.316-.475.575-.587.258-.113.58-.107.984.087l-.064.33c-.374-.18-.653-.177-.862-.086-.208.09-.356.273-.464.476-.11.206-.179.433-.227.611l-.025.097c-.013.049-.024.095-.034.127a.467.467 0 01-.036.094.154.154 0 01-.057.062zm-.112.144c-.007-.055.046-.104.124-.134l.399.237c.069-.026.119-.07.112-.12-.005-.04-.04-.064-.048-.07l-.021-.012.014.006c.024.01.052.02.09.033l.118.043c.191.07.46.178.683.328.225.152.404.35.41.596.006.245-.16.524-.573.841l-.54-.16c.365-.28.481-.504.477-.678-.005-.173-.128-.311-.294-.423a2.64 2.64 0 00-.552-.264 8.272 8.272 0 00-.09-.032l-.135-.05c-.024-.01-.073-.03-.11-.055-.018-.012-.059-.042-.064-.086zm7.377 3.649a.098.098 0 01.072-.016l-.02.08a.04.04 0 00.024-.007l.003-.003-.002.006a.23.23 0 00-.002.084c.003.047.011.106.021.176.007.053.016.112.023.178.036.3.061.714-.064 1.148-.125.435-.402.89-.968 1.272-.565.382-1.417.688-2.686.829l-.016-.08c1.255-.14 2.085-.44 2.631-.809.546-.368.813-.807.935-1.229.122-.422.098-.826.062-1.124l-.022-.174c-.01-.072-.019-.134-.023-.183a.316.316 0 01.005-.105.076.076 0 01.027-.043zm-7.473-4.07a.686.686 0 01.095.115l-.6.168a.02.02 0 00.002.003s-.008-.01-.032-.034a1.875 1.875 0 00-.118-.108 4.747 4.747 0 00-.433-.327c-.37-.25-.88-.53-1.483-.725a4.661 4.661 0 00-2.011-.208c-.726.09-1.534.378-2.375 1.014l-.478-.301c.917-.693 1.846-1.042 2.738-1.152.891-.11 1.71.02 2.4.243a6.67 6.67 0 011.661.81c.203.136.367.264.486.366.06.052.109.098.148.137z" fill="#fff"/><path fill-rule="evenodd" clip-rule="evenodd" d="M101.496 16.8a.49.49 0 01-.063.134l-.451-.27-.012.019s.004-.007.01-.026c.008-.026.019-.066.031-.118.023-.104.046-.25.058-.428a3.992 3.992 0 00-.141-1.349c-.29-1.025-1.08-2.238-3.074-3.021l.214-.452c2.157.848 3.054 2.188 3.383 3.35.162.578.184 1.106.157 1.503-.014.2-.04.367-.068.494a1.638 1.638 0 01-.044.163zm.035.207c.025.01.06.024.087.048l-.139.36.007.006-.021-.009a.673.673 0 00-.086-.024 1.536 1.536 0 00-.304-.034 2.13 2.13 0 00-.943.211c-.712.338-1.536 1.17-2.02 3.136l-.258-.145c.515-2.094 1.408-3.015 2.196-3.388a2.316 2.316 0 011.028-.23c.137.002.253.018.341.037.044.01.081.021.112.032z" fill="#fff"/><path fill-rule="evenodd" clip-rule="evenodd" d="M101.045 15.854c.21.056.466.17.573.587l-.617.395a.204.204 0 00.05.099.397.397 0 00-.118-.046c-.178-.047-.474-.077-.99-.12l-.213-.017a79.284 79.284 0 01-5.64-.652l.063-1.045c2.852.422 4.572.563 5.612.648l.214.018c.498.041.841.073 1.066.133zm.009 1.082l-.003-.001z" fill="#fff"/><path fill-rule="evenodd" clip-rule="evenodd" d="M101.608 16.65a.348.348 0 01-.05.285l-.451-.275c-.035.049-.027.092-.027.092a.632.632 0 00-.053-.118c-.076-.143-.219-.37-.462-.748l-.102-.159c-.496-.77-1.318-2.048-2.609-4.193l.47-.245a149.476 149.476 0 002.704 4.34c.238.37.395.618.483.784.043.081.08.162.097.237zm-.163.301a.16.16 0 01.173.027l-.141.358c.022.019.041.015.041.015h-.002a.392.392 0 00-.088.061c-.098.081-.251.23-.504.482l-.106.105c-.517.512-1.373 1.36-2.814 2.702l-.15-.35a111.524 111.524 0 002.808-2.696l.106-.105c.249-.247.413-.408.524-.499a.614.614 0 01.153-.1z" fill="#fff"/><path fill-rule="evenodd" clip-rule="evenodd" d="M97.372 15.056c.94-.026 1.999.323 4.246 1.335l-.303.546c-2.274-1.025-3.181-1.292-3.922-1.271-.37.01-.716.093-1.21.224l-.128.034c-.467.125-1.044.279-1.83.423l-.135-.598c.757-.138 1.308-.286 1.773-.41l.13-.034c.487-.13.91-.236 1.38-.249z" fill="#fff"/><path fill-rule="evenodd" clip-rule="evenodd" d="M98.935 15.948c.734-.25 1.572-.534 2.683-.264l-.159.656c-.904-.22-1.509-.017-2.207.218-.24.081-.491.166-.77.238a3.808 3.808 0 01-1.843.05c-.715-.155-1.538-.529-2.549-1.239l.385-.552c.965.677 1.705 1.001 2.307 1.132a3.14 3.14 0 001.532-.044c.2-.052.406-.122.62-.195z" fill="#fff"/><path fill-rule="evenodd" clip-rule="evenodd" d="M101.347 15.74c.101.025.217.121.271.318l-.596.357c.045.166.144.244.22.262a.165.165 0 00.087-.002c.001 0 .001 0 0 0l-.026.016c-.019.012-.044.03-.075.054-.087.067-.196.16-.332.277a47.61 47.61 0 01-.225.193c-.477.404-1.145.937-1.893 1.274-.747.337-1.6.49-2.438.09-.846-.404-1.627-1.35-2.25-3.078l.568-.446c.56 1.554 1.223 2.307 1.88 2.622.667.318 1.376.21 2.052-.096.676-.305 1.292-.793 1.76-1.19l.205-.174c.145-.125.275-.236.376-.314a1.06 1.06 0 01.23-.144.308.308 0 01.186-.018z" fill="#fff"/><path fill-rule="evenodd" clip-rule="evenodd" d="M101.587 16.661a.272.272 0 01-.013.273l-.418-.275a.229.229 0 00-.016.226.083.083 0 00.017.027l-.003-.003a1.02 1.02 0 00-.094-.081c-.07-.056-.162-.125-.273-.208l-.18-.135a12 12 0 01-1.384-1.192c-.95-.979-1.835-2.397-1.091-4.004l.453.212c-.603 1.302.076 2.492.996 3.44.454.468.947.856 1.326 1.141l.169.127c.116.087.219.164.295.225.055.044.109.09.148.132.019.02.047.053.068.095z" fill="#fff"/><path fill-rule="evenodd" clip-rule="evenodd" d="M101.462 16.968c.02-.016.086-.059.156-.002l-.142.337c.062.05.117.01.124.005a.074.074 0 00.011-.011l-.003.004c-.01.015-.028.047-.056.1a9.649 9.649 0 00-.136.277l-.086.18a11.87 11.87 0 01-.774 1.392c-.643.965-1.58 1.871-2.702 1.244l.106-.362c.946.53 1.762-.206 2.389-1.147.31-.465.562-.964.747-1.345l.082-.17c.056-.117.105-.219.145-.296.028-.055.057-.107.083-.144a.273.273 0 01.056-.062zm20.707-3.185l-.01.004-.341-.593-.009.003a.387.387 0 00-.029.013c-.03.016-.198.271-.074.514a.95.95 0 00.379.083.753.753 0 00.026-.005l.008-.003h.003-.004l-.015.005-.119.037a97.704 97.704 0 01-2.343.682 92.2 92.2 0 01-5.979 1.455c-2.276.467-4.707.852-6.84.939-2.104.086-4.036-.111-5.204-.907l.528-.497c.909.62 2.552.837 4.635.752 2.054-.084 4.425-.457 6.679-.92a91.02 91.02 0 005.914-1.439 94.54 94.54 0 002.319-.675l.12-.037.033-.01.011-.003.01-.002a.624.624 0 01.027-.006.945.945 0 01.379.082c.124.243-.043.499-.073.515a.454.454 0 01-.031.013z" fill="#fff"/><path fill-rule="evenodd" clip-rule="evenodd" d="M122.143 13.883l-.317-.676h-.001c-.002.001-.016.007-.032.017a.677.677 0 00-.063.046c-.049.053-.12.32-.037.51a.696.696 0 00.301.136.64.64 0 00.054-.005l.029-.005.01-.003-.005.001a58.16 58.16 0 00-1.682.608 67.69 67.69 0 00-4.013 1.668c-1.493.681-3.014 1.459-4.226 2.258-.606.399-1.127.798-1.526 1.187-.402.392-.66.753-.773 1.074l-.717-.244c.167-.473.514-.929.956-1.359.445-.434 1.008-.862 1.637-1.277 1.26-.83 2.821-1.626 4.329-2.315a68.74 68.74 0 015.694-2.28l.09-.029a.905.905 0 01.039-.011l.033-.007a.76.76 0 01.055-.005.69.69 0 01.301.136c.084.19.013.457-.037.51a.577.577 0 01-.099.065zm-26.399-3.709l-.33-.73a.352.352 0 00-.047.026.763.763 0 00-.178.29c.08.293.393.45.447.445a.712.712 0 00.07-.016l.004-.002-.006.002a47.037 47.037 0 00-1.62.708 52.148 52.148 0 00-3.9 1.99c-1.46.83-2.959 1.794-4.178 2.822-1.23 1.037-2.127 2.098-2.456 3.11l-.75-.252c.401-1.232 1.442-2.413 2.702-3.476 1.27-1.071 2.815-2.063 4.296-2.904a52.972 52.972 0 015.54-2.714l.084-.034.03-.011.025-.007a.71.71 0 01.049-.01c.054-.005.367.151.447.444a.761.761 0 01-.179.29.73.73 0 01-.03.019l-.02.01zm41.549 10.325a.503.503 0 01-.167.2l-.344-1.087a.467.467 0 00-.156.186.824.824 0 00-.062.505.66.66 0 00.106.258c.027.038.05.06.061.07a.188.188 0 00.032.024l-.025-.012a2.73 2.73 0 00-.364-.12 12.84 12.84 0 00-1.685-.315c-1.514-.195-3.779-.307-6.671-.027l-.054-1.193c2.933-.285 5.241-.172 6.798.028.778.1 1.372.223 1.764.33.194.054.35.106.457.155a.56.56 0 01.26.202c.028.038.086.13.114.276.035.18.01.371-.064.52z" fill="#fff"/><path d="M5.18 100.454v6.192h-.658v-5.603H2.091l-.104 2.318c-.044.858-.127 1.514-.247 1.968-.121.451-.3.782-.538.996-.238.214-.554.321-.95.321H0v-.607l.203-.011c.377-.008.648-.199.812-.573.165-.374.273-1.041.324-2.003l.12-2.998h3.722zm5.516 6.192c-.066-.195-.108-.483-.126-.865a2.32 2.32 0 01-.884.727 2.61 2.61 0 01-1.13.252c-.571 0-1.034-.166-1.389-.498-.351-.332-.527-.751-.527-1.259 0-.603.24-1.08.72-1.431.482-.351 1.154-.526 2.013-.526h1.191v-.704c0-.442-.131-.79-.395-1.041-.26-.256-.64-.384-1.141-.384-.458 0-.836.122-1.136.366-.3.245-.45.538-.45.882l-.659-.006c0-.492.22-.918.659-1.276.439-.363.978-.544 1.619-.544.662 0 1.183.174 1.564.521.384.343.581.824.592 1.442v2.93c0 .599.06 1.047.181 1.345v.069h-.702zm-2.063-.493c.439 0 .83-.11 1.174-.332.348-.221.6-.516.757-.887v-1.362H9.39c-.655.008-1.167.134-1.537.378-.37.241-.554.572-.554.996 0 .347.123.635.368.864.248.229.57.343.966.343zm8.901.493h-.659v-2.839h-3.199v2.839h-.659v-6.192h.659v2.775h3.2v-2.775h.658v6.192zm1.624-.578l.291-.395c.461-.653.726-1.606.796-2.862l.104-2.357h3.507v5.614h.615v2.397h-.653v-1.819h-4.462v1.819h-.631l.005-2.397h.428zm.758 0h3.282v-4.973h-2.223l-.071 1.608c-.066 1.476-.395 2.598-.988 3.365zm6.524-5.614v5.614h2.64v-5.614h.66v5.614h2.617v-5.614h.659v6.192h-7.234v-6.192h.659zm11.97 6.192c-.066-.195-.108-.483-.126-.865a2.32 2.32 0 01-.884.727 2.61 2.61 0 01-1.13.252c-.57 0-1.034-.166-1.389-.498-.35-.332-.526-.751-.526-1.259 0-.603.24-1.08.719-1.431.482-.351 1.154-.526 2.014-.526h1.19v-.704c0-.442-.131-.79-.395-1.041-.26-.256-.64-.384-1.141-.384-.457 0-.836.122-1.136.366-.3.245-.45.538-.45.882l-.659-.006c0-.492.22-.918.659-1.276.439-.363.979-.544 1.619-.544.662 0 1.183.174 1.564.521.384.343.581.824.593 1.442v2.93c0 .599.06 1.047.18 1.345v.069h-.702zm-2.063-.493c.439 0 .83-.11 1.174-.332.348-.221.6-.516.758-.887v-1.362h-1.175c-.655.008-1.167.134-1.537.378-.37.241-.554.572-.554.996 0 .347.123.635.368.864.249.229.57.343.966.343zm4.093-2.552c0-1.007.19-1.803.566-2.386.38-.584.905-.876 1.575-.876.384 0 .71.09.977.269v-2.752h.653v2.775c.27-.195.607-.292 1.01-.292.633 0 1.14.265 1.52.796.38.53.587 1.268.62 2.214l.006.372c0 .943-.19 1.687-.571 2.232-.38.542-.902.813-1.564.813-.395 0-.736-.09-1.021-.269v2.529h-.653v-2.524a1.826 1.826 0 01-.988.264c-.626 0-1.127-.246-1.504-.738-.377-.496-.583-1.181-.62-2.055l-.005-.372zm6.273 0c0-.832-.144-1.486-.433-1.963-.285-.477-.686-.715-1.202-.715-.373 0-.662.084-.867.252v4.79c.23.148.523.223.878.223a1.36 1.36 0 001.196-.641c.286-.431.428-1.08.428-1.946zm-5.614.12c0 .779.138 1.385.412 1.82.274.431.67.647 1.185.647.344 0 .631-.078.862-.235v-4.796c-.212-.156-.496-.234-.85-.234-.513 0-.91.238-1.192.715-.278.473-.417 1.168-.417 2.083zm11.558-2.684h-2.162v5.609h-.659v-5.609h-2.08v-.583h4.9v.583zm5.641 5.609h-.658v-2.839h-3.2v2.839h-.658v-6.192h.659v2.775h3.199v-2.775h.658v6.192zm5.51 0c-.066-.195-.108-.483-.126-.865a2.32 2.32 0 01-.883.727 2.61 2.61 0 01-1.13.252c-.572 0-1.034-.166-1.39-.498-.35-.332-.526-.751-.526-1.259 0-.603.24-1.08.719-1.431.483-.351 1.154-.526 2.014-.526h1.19v-.704c0-.442-.131-.79-.394-1.041-.26-.256-.64-.384-1.142-.384-.457 0-.836.122-1.136.366-.3.245-.45.538-.45.882l-.659-.006c0-.492.22-.918.659-1.276.44-.363.979-.544 1.619-.544.662 0 1.184.174 1.564.521.384.343.582.824.593 1.442v2.93c0 .599.06 1.047.18 1.345v.069h-.702zm-2.063-.493c.439 0 .83-.11 1.174-.332.348-.221.6-.516.758-.887v-1.362h-1.175c-.655.008-1.167.134-1.536.378-.37.241-.555.572-.555.996 0 .347.123.635.368.864.249.229.57.343.966.343zm8.671-5.699v6.192h-.659v-2.496h-1.844l-1.448 2.496h-.725l1.493-2.581a1.669 1.669 0 01-.95-.641 1.899 1.899 0 01-.334-1.122c0-.561.192-1.009.576-1.345.388-.336.91-.503 1.57-.503h2.32zm-3.809 1.859c0 .363.11.66.33.893.223.233.532.353.927.361h1.893v-2.53h-1.679c-.457 0-.818.115-1.081.344-.26.229-.39.54-.39.932zm10.51 3.869c.457 0 .84-.134 1.147-.401.31-.27.479-.62.505-1.047h.63a2.009 2.009 0 01-.34 1.036 2.165 2.165 0 01-.834.727 2.41 2.41 0 01-1.108.263c-.78 0-1.398-.282-1.855-.847-.454-.565-.68-1.324-.68-2.278v-.206c0-.61.102-1.15.307-1.619.205-.469.497-.832.878-1.087.384-.256.832-.384 1.344-.384.651 0 1.187.202 1.608.607.425.404.651.936.68 1.596h-.63c-.03-.484-.198-.875-.505-1.173-.304-.297-.688-.446-1.153-.446-.593 0-1.053.223-1.383.669-.325.447-.488 1.072-.488 1.877v.201c0 .789.163 1.406.488 1.848.33.443.792.664 1.389.664zm7.863-5.145h-2.16v5.609h-.659v-5.609h-2.08v-.583h4.9v.583zm3.03 4.624l1.734-5.207h.708l-2.535 7.245-.132.32c-.325.752-.828 1.127-1.509 1.127a1.75 1.75 0 01-.505-.08l-.005-.566.34.034c.322 0 .582-.084.78-.252.2-.164.37-.448.51-.852l.29-.836-2.239-6.14h.72l1.843 5.207zm3.019.407l.29-.395c.462-.653.727-1.606.796-2.862l.105-2.357h3.506v5.614h.615v2.397h-.653v-1.819h-4.462v1.819h-.63l.005-2.397h.428zm.757 0h3.282v-4.973h-2.223l-.071 1.608c-.066 1.476-.395 2.598-.988 3.365zm9.725-5.614h.658v6.192h-.658v-5.088l-3.205 5.088h-.653v-6.192h.653v5.093l3.205-5.093zm6.75 0v6.192h-.659v-2.496h-1.844l-1.449 2.496h-.724l1.493-2.581a1.671 1.671 0 01-.95-.641 1.9 1.9 0 01-.334-1.122c0-.561.192-1.009.576-1.345.388-.336.911-.503 1.569-.503h2.322zm-3.809 1.859c0 .363.11.66.329.893.224.233.533.353.928.361h1.893v-2.53h-1.679c-.457 0-.818.115-1.081.344-.26.229-.39.54-.39.932zm9.363-4l2.947 7.354 2.958-7.354h.9v8.333h-.675v-3.629l.055-3.72-2.975 7.349h-.521l-2.964-7.32.055 3.668v3.652h-.675v-8.333h.895zm12.424 8.333c-.066-.195-.108-.483-.126-.865-.23.313-.525.556-.883.727a2.611 2.611 0 01-1.131.252c-.571 0-1.034-.166-1.388-.498-.352-.332-.527-.751-.527-1.259 0-.603.239-1.08.719-1.431.483-.351 1.154-.526 2.014-.526h1.191v-.704c0-.442-.132-.79-.396-1.041-.259-.256-.64-.384-1.141-.384-.457 0-.836.122-1.136.366-.3.245-.45.538-.45.882l-.659-.006c0-.492.22-.918.659-1.276.439-.363.979-.544 1.619-.544.662 0 1.183.174 1.564.521.384.343.582.824.593 1.442v2.93c0 .599.06 1.047.181 1.345v.069h-.703zm-2.063-.493c.439 0 .83-.11 1.174-.332.348-.221.6-.516.758-.887v-1.362h-1.175c-.655.008-1.167.134-1.536.378-.37.241-.555.572-.555.996 0 .347.123.635.368.864.249.229.571.343.966.343zm9.115-2.54c0 .965-.205 1.732-.614 2.3-.41.565-.959.847-1.647.847-.812 0-1.434-.298-1.866-.893v3.159h-.653v-8.572h.609l.033.875c.428-.66 1.049-.99 1.861-.99.71 0 1.266.281 1.668.841.406.561.609 1.339.609 2.335v.098zm-.658-.121c0-.789-.156-1.413-.467-1.871-.311-.458-.744-.687-1.3-.687-.403 0-.749.101-1.038.304-.289.202-.51.496-.664.881v2.97c.158.355.383.626.675.813.293.187.639.28 1.038.28.552 0 .982-.229 1.289-.687.311-.461.467-1.129.467-2.003zm6.02-3.038h.659v6.192h-.659v-5.088l-3.205 5.088h-.653v-6.192h.653v5.093l3.205-5.093zm6.981 6.192h-.659v-2.839h-3.199v2.839h-.659v-6.192h.659v2.775h3.199v-2.775h.659v6.192zm2.486-3.943h1.712c.439 0 .823.084 1.152.251.333.164.584.393.752.687.172.294.258.635.258 1.024 0 .599-.197 1.08-.592 1.443-.392.358-.922.538-1.592.538h-2.343v-6.192h.653v2.249zm0 .583v2.782h1.701c.472 0 .842-.124 1.109-.372.27-.248.406-.588.406-1.019 0-.412-.132-.744-.395-.996-.26-.255-.617-.387-1.071-.395h-1.75zm5.888 3.36h-.658v-6.192h.658v6.192zm6.515-3.909h-1.098v3.909h-.675v-8.333h.675v3.823h1.065l3.089-3.823h.851l-3.282 4.098 3.523 4.235h-.839l-3.309-3.909zm9.867.876c0 .965-.205 1.732-.615 2.3-.41.565-.958.847-1.646.847-.812 0-1.434-.298-1.866-.893v3.159h-.653v-8.572h.609l.033.875c.428-.66 1.048-.99 1.86-.99.71 0 1.266.281 1.669.841.406.561.609 1.339.609 2.335v.098zm-.659-.121c0-.789-.155-1.413-.466-1.871-.311-.458-.745-.687-1.301-.687-.402 0-.748.101-1.037.304-.289.202-.51.496-.664.881v2.97c.157.355.382.626.675.813.293.187.638.28 1.037.28.553 0 .983-.229 1.29-.687.311-.461.466-1.129.466-2.003zm1.756-.034c0-.595.11-1.131.33-1.608.223-.477.536-.847.938-1.11a2.452 2.452 0 011.378-.401c.79 0 1.43.29 1.92.87.491.576.736 1.341.736 2.295v.143a3.8 3.8 0 01-.335 1.619c-.219.477-.53.845-.933 1.105a2.487 2.487 0 01-1.377.389c-.787 0-1.427-.288-1.921-.864-.49-.58-.736-1.347-.736-2.301v-.137zm.659.189c0 .74.183 1.349.549 1.825.369.473.852.71 1.449.71a1.73 1.73 0 001.437-.71c.37-.476.555-1.104.555-1.882v-.132c0-.473-.084-.906-.253-1.299-.168-.393-.404-.696-.708-.91a1.746 1.746 0 00-1.042-.326c-.586 0-1.063.24-1.433.721-.369.477-.554 1.102-.554 1.877v.126zm7.749-.681l1.602-2.512h.78l-2.014 3.038 2.102 3.154h-.774l-1.69-2.621-1.691 2.621h-.774l2.097-3.154-2.014-3.038h.774l1.602 2.512zm7.502-2.512h.659v6.192h-.659v-5.088l-3.205 5.088h-.653v-6.192h.653v5.093l3.205-5.093zm6.981 6.192h-.659v-2.839h-3.199v2.839h-.659v-6.192h.659v2.775h3.199v-2.775h.659v6.192zm1.399-3.188c0-.595.11-1.131.329-1.608.224-.477.536-.847.939-1.11a2.45 2.45 0 011.377-.401c.791 0 1.431.29 1.921.87.49.576.736 1.341.736 2.295v.143a3.8 3.8 0 01-.335 1.619 2.55 2.55 0 01-.933 1.105 2.493 2.493 0 01-1.378.389c-.786 0-1.427-.288-1.92-.864-.491-.58-.736-1.347-.736-2.301v-.137zm.659.189c0 .74.183 1.349.548 1.825.37.473.853.71 1.449.71.593 0 1.072-.237 1.438-.71.37-.476.554-1.104.554-1.882v-.132c0-.473-.084-.906-.252-1.299-.168-.393-.404-.696-.708-.91a1.75 1.75 0 00-1.043-.326c-.585 0-1.062.24-1.432.721-.37.477-.554 1.102-.554 1.877v.126zm9.905-3.193H207v6.192h-.659v-5.088l-3.205 5.088h-.653v-6.192h.653v5.093l3.205-5.093zm-.032-2.232c0 .439-.145.793-.434 1.064-.285.271-.67.406-1.152.406-.476 0-.86-.133-1.153-.4-.289-.271-.434-.628-.434-1.07h.56c0 .316.09.559.269.727.183.167.436.251.758.251.321 0 .572-.087.751-.263.183-.175.275-.414.275-.715h.56z" fill="#fff"/><path fill-rule="evenodd" clip-rule="evenodd" d="M11.29 38.378c0-.405.126-.849.376-1.33.25-.482.562-.95.937-1.407a6.322 6.322 0 011.2-1.14c.426-.304.838-.456 1.239-.456.55 0 1.112.279 1.687.836a96.741 96.741 0 011.463 1.444c.8.862 1.513 1.762 2.138 2.7a64.774 64.774 0 011.838 2.926 87.199 87.199 0 017.09 15.091 122.66 122.66 0 014.538 16.08c.4-1.369.937-2.686 1.612-3.953a281.563 281.563 0 012.063-3.802 377.09 377.09 0 013.939-7.184 2227.4 2227.4 0 014.013-7.108c1.5-2.636 3.026-5.335 4.576-8.097 1.55-2.762 3.15-5.41 4.801-7.945.15-.253.338-.545.563-.874.225-.33.475-.659.75-.988.275-.33.55-.609.825-.837.275-.228.563-.342.863-.342.55 0 1.075.216 1.575.646.5.431.75.925.75 1.483 0 .253-.087.494-.262.722-.175.228-.338.444-.488.646a41.048 41.048 0 00-3.863 5.816 478.401 478.401 0 01-3.413 6.12 558.024 558.024 0 00-6.302 11.29 990.61 990.61 0 00-6.076 11.366c-.4.76-.85 1.596-1.35 2.509-.5.912-1 1.85-1.5 2.813a58.409 58.409 0 00-1.389 2.85c-.425.939-.737 1.787-.937 2.548-.2.658-.338 1.28-.413 1.862-.075.583-.213 1.077-.413 1.482-.2.406-.512.735-.937.989-.425.253-1.088.38-1.988.38-.6 0-1.05-.152-1.35-.456a2.863 2.863 0 01-.676-1.14 5.481 5.481 0 01-.262-1.445 7.199 7.199 0 00-.188-1.368c-.9-5.677-2.363-11.379-4.388-17.106-2.026-5.727-4.314-11.176-6.864-16.346-.6-1.165-1.226-2.356-1.876-3.573a19.435 19.435 0 00-2.25-3.345c-.25-.253-.588-.62-1.013-1.102-.425-.482-.638-.9-.638-1.255zm182.537 30.607c0-1.125-.468-1.688-1.403-1.688-.643 0-1.14.251-1.491.755a30.8 30.8 0 00-.964 1.467c-.527.829-1.316 1.925-2.368 3.288a47.86 47.86 0 01-3.419 3.954 29.91 29.91 0 01-3.771 3.332c-1.286.948-2.455 1.422-3.507 1.422-.702 0-1.243-.37-1.623-1.11-.38-.741-.657-1.6-.833-2.578a19.957 19.957 0 01-.307-2.888 76.746 76.746 0 01-.044-2.132c0-1.54.103-3.185.308-4.933.204-1.747.54-3.391 1.008-4.932.234-.651.555-1.51.964-2.576.409-1.067.614-1.926.614-2.578 0-.592-.219-.977-.658-1.155a3.577 3.577 0 00-1.359-.266c-.818 0-1.446.28-1.885.844a8.795 8.795 0 00-1.096 1.822 111.26 111.26 0 00-1.271 2.71 72.814 72.814 0 01-1.973 3.954 241.64 241.64 0 01-2.412 4.4 42.37 42.37 0 01-2.586 4.087c-.878 1.215-1.725 2.222-2.544 3.021-.818.8-1.548 1.2-2.191 1.2-.527 0-.848-.267-.965-.8-.117-.533-.176-.977-.176-1.333 0-3.377.673-6.531 2.017-9.464a28.605 28.605 0 015.437-7.953 28.966 28.966 0 014.077-3.6 62.94 62.94 0 014.516-2.976c.234-.119.439-.252.614-.4.175-.149.263-.37.263-.667 0-.652-.322-1.273-.965-1.866-.642-.592-1.285-.889-1.929-.889-2.572 0-5.042.89-7.409 2.666-2.368 1.778-4.472 3.985-6.313 6.62a37.773 37.773 0 00-4.677 9.082c-.282.437-.523.831-.721 1.183-.468.948-1.14 2.103-2.017 3.465a33.92 33.92 0 01-2.981 3.955c-1.111 1.273-2.265 2.37-3.463 3.288-1.199.918-2.383 1.377-3.552 1.377-.702 0-1.242-.178-1.622-.533a3.12 3.12 0 01-.833-1.333 6.466 6.466 0 01-.307-1.733 37.4 37.4 0 01-.044-1.733c0-2.073.059-4.146.175-6.22.117-2.074.176-4.147.176-6.22 0-.652-.029-1.452-.088-2.4a13.76 13.76 0 00-.482-2.844c-.263-.948-.658-1.748-1.184-2.4-.526-.651-1.227-.977-2.104-.977-1.111 0-2.411.652-3.902 1.955-1.491 1.304-2.967 2.814-4.429 4.533a74.545 74.545 0 00-4.077 5.242 274 274 0 00-2.85 4.088 79.68 79.68 0 01.877-5.154 31.364 31.364 0 011.491-5.065 73.041 73.041 0 001.535-4.665c.496-1.689.745-3.304.745-4.844 0-.948-.19-1.688-.57-2.221-.38-.534-1.067-.8-2.061-.8-1.111 0-2.178.444-3.201 1.333-1.022.888-1.651 1.866-1.885 2.932a88.654 88.654 0 00-.789 4.177 88.564 88.564 0 01-.789 4.177c-.438 2.13-.879 4.304-1.324 6.524a3 3 0 00-.147.185c-.409.563-.76 1.051-1.052 1.467-.527.829-1.374 1.94-2.544 3.332a49.81 49.81 0 01-3.857 4.087 36.223 36.223 0 01-4.209 3.467c-1.403.977-2.631 1.436-3.683 1.377a10.54 10.54 0 001.534-3.288 13.52 13.52 0 00.482-3.555c0-1.896-.292-3.762-.877-5.599a36.991 36.991 0 00-2.191-5.376 175.806 175.806 0 00-2.719-5.198 51.425 51.425 0 01-2.455-5.155 43.553 43.553 0 001.403-4.31c.41-1.51.614-3.006.614-4.487 0-.474-.044-.978-.132-1.51a7.206 7.206 0 00-.438-1.556 3.186 3.186 0 00-.877-1.244 2.02 2.02 0 00-1.36-.489c-1.051 0-1.987.385-2.805 1.155A9.54 9.54 0 0085.9 41.97a16.595 16.595 0 00-1.227 3.377c-.293 1.185-.439 2.221-.439 3.11 0 1.6.263 3.17.79 4.71-2.16 7.958-6.886 14.436-11.555 20.35a25.808 25.808 0 01-3.859 3.955 20.324 20.324 0 01-4.56 2.843c-1.636.741-3.39 1.111-5.26 1.111-2.046 0-3.508-.577-4.384-1.732-.877-1.17-1.316-2.755-1.316-4.77 0-1.125.146-2.384.438-3.747 1.345-.474 2.806-1.362 4.385-2.666a32.839 32.839 0 004.428-4.502c1.374-1.703 2.514-3.45 3.42-5.258.906-1.807 1.359-3.466 1.359-4.947 0-1.54-.424-2.829-1.271-3.836-.848-1.007-2.061-1.51-3.64-1.51-2.338 0-4.486.918-6.445 2.755-1.958 1.836-3.638 4.072-5.041 6.709a38.709 38.709 0 00-3.245 8.22c-.76 2.843-1.14 5.273-1.14 7.287 0 1.599.176 3.125.526 4.576.351 1.452.921 2.726 1.71 3.821a9.133 9.133 0 003.025 2.666c1.228.682 2.718 1.022 4.473 1.022 2.396 0 4.705-.4 6.927-1.214a26.17 26.17 0 006.225-3.288 30.968 30.968 0 005.305-4.828c4.039-4.615 7.658-9.907 10.064-15.597a63.18 63.18 0 001.535-3.954c.701 1.066 1.417 2.325 2.148 3.777a47.165 47.165 0 011.973 4.487 40.017 40.017 0 011.447 4.621c.38 1.54.57 2.992.57 4.355 0 2.25-.6 4.102-1.798 5.554-1.198 1.451-2.967 2.177-5.305 2.177-1.169 0-2.25-.118-3.244-.356-.994-.236-1.988-.68-2.982-1.333-.292-.177-.54-.326-.745-.444-.204-.118-.482-.177-.833-.177-.935 0-1.403.444-1.403 1.332 0 .415.088.77.263 1.067a4.7 4.7 0 00.702.888c1.286 1.245 2.908 2.044 4.866 2.4 1.959.355 3.785.533 5.48.533 3.157 0 6.036-.37 8.638-1.11 2.601-.741 4.969-1.823 7.102-3.244 2.134-1.422 4.107-3.17 5.919-5.244a48.608 48.608 0 001.749-2.119c-.77 4.243-1.155 8.386-1.155 12.428 0 .592.147 1.11.439 1.555.292.444.76.667 1.403.667.818 0 1.534-.297 2.148-.889a7.051 7.051 0 001.447-1.955 196.929 196.929 0 013.069-6.62 71.094 71.094 0 013.507-6.354 140 140 0 013.508-5.422c1.286-1.895 2.66-3.554 4.121-4.975.234-.238.555-.534.964-.89.41-.355.761-.533 1.053-.533.351 0 .57.237.658.712.087.473.131.829.131 1.066 0 1.718-.058 3.406-.175 5.065a71.98 71.98 0 00-.176 5.066c0 1.125.044 2.37.132 3.732.088 1.362.351 2.636.789 3.82.438 1.186 1.081 2.178 1.929 2.978.847.8 2.031 1.2 3.551 1.2 1.637 0 3.318-.534 5.043-1.6 1.724-1.066 3.361-2.37 4.91-3.91a34.724 34.724 0 003.168-3.613c.036.491.092 1.014.168 1.57.147 1.066.41 2.073.79 3.02.38.949.92 1.748 1.622 2.4.701.652 1.578.978 2.631.978 1.168 0 2.352-.445 3.551-1.333a23.168 23.168 0 003.463-3.2 37.295 37.295 0 003.026-3.865 291.588 291.588 0 002.236-3.333c-.059 1.067-.03 2.385.087 3.955.117 1.57.409 3.08.877 4.532s1.14 2.696 2.017 3.732c.876 1.037 2.046 1.555 3.507 1.555 1.52 0 3.055-.444 4.604-1.332a22.997 22.997 0 004.384-3.289 39.377 39.377 0 003.814-4.176 128.4 128.4 0 002.982-3.91c.292-.474.686-1.067 1.184-1.777.496-.711.745-1.333.745-1.867zM62.771 52.545c.585 0 .979.223 1.184.667.205.444.306.918.306 1.392 0 1.185-.321 2.429-.964 3.703a23.65 23.65 0 01-2.368 3.761 23.446 23.446 0 01-3.068 3.304c-1.111.977-2.134 1.777-3.07 2.37.117-.771.439-2.015.965-3.703a44.134 44.134 0 011.93-5.096c.76-1.703 1.577-3.198 2.455-4.472.877-1.289 1.753-1.926 2.63-1.926z" fill="#fff"/></svg>